<?xml version="1.0" encoding="UTF-8"?>
<svg version="1.1" xmlns="http://www.w3.org/2000/svg" width="669" height="373">
<path d="M0 0 C4.87373151 -0.42014927 7.11318116 -0.49984335 11.4375 1.9375 C14.75264777 5.89950588 14.97804312 8.9608971 15 14 C15.721875 13.773125 16.44375 13.54625 17.1875 13.3125 C20.7809319 12.91322979 22.18230651 13.82635074 25 16 C25 16.66 25 17.32 25 18 C25.66 18 26.32 18 27 18 C28.35439668 20.70879335 28.06501451 23.00933268 28 26 C29.03125 25.855625 30.0625 25.71125 31.125 25.5625 C35.91233779 26.10300588 36.79291141 27.2792478 39.68896484 30.87182617 C41.9270366 34.50483763 42.31552973 38.19071707 42.75 42.375 C42.9502422 43.98733981 43.15335983 45.59932516 43.359375 47.2109375 C43.45557129 47.99960205 43.55176758 48.7882666 43.65087891 49.60083008 C44.11702256 52.80418233 44.83169659 55.92622701 45.59423828 59.07055664 C46.08616277 61.40971383 46.15368211 63.6179273 46 66 C41.25 67.125 41.25 67.125 39 66 C38.40325542 63.72971091 37.92196672 61.4288213 37.4921875 59.12109375 C37.29666794 58.09110008 37.29666794 58.09110008 37.09719849 57.04029846 C36.68162509 54.84080979 36.27820146 52.63928682 35.875 50.4375 C35.59584773 48.94841833 35.3159099 47.4594837 35.03515625 45.97070312 C34.34763799 42.31546613 33.67100044 38.65830954 33 35 C32.01 35 31.02 35 30 35 C30.06058594 35.65484375 30.12117188 36.3096875 30.18359375 36.984375 C30.45946538 39.98925365 30.72977043 42.99460892 31 46 C31.09539062 47.02996094 31.19078125 48.05992187 31.2890625 49.12109375 C31.79321351 54.77478726 32.109151 60.32414798 32 66 C29.525 66.495 29.525 66.495 27 67 C24.79991857 63.39986674 24.57268628 60.12672176 24.25390625 55.9609375 C24.1374625 54.5611902 24.02092289 53.16145087 23.90429688 51.76171875 C23.73227345 49.5768992 23.56377749 47.39185983 23.39819336 45.20654297 C22.75323116 36.84958064 21.95665322 28.92522311 19 21 C16.82346752 22.76361847 16.82346752 22.76361847 16.76953125 24.953125 C16.78371094 25.71109375 16.79789063 26.4690625 16.8125 27.25 C16.82216797 28.37148437 16.82216797 28.37148437 16.83203125 29.515625 C16.95806389 32.06315779 16.95806389 32.06315779 17.50439453 34.79052734 C17.98014521 37.8714231 18.114394 40.7227166 18.09765625 43.8359375 C18.09443359 44.89941406 18.09121094 45.96289062 18.08789062 47.05859375 C18.07532227 48.70021484 18.07532227 48.70021484 18.0625 50.375 C18.05798828 51.49261719 18.05347656 52.61023438 18.04882812 53.76171875 C18.03709244 56.50786804 18.02067363 59.25390586 18 62 C16.125 63.0625 16.125 63.0625 14 64 C12 63 12 63 11 60 C10.79017182 57.5594724 10.62550388 55.13632523 10.5 52.69140625 C10.45939453 51.96944565 10.41878906 51.24748505 10.37695312 50.50364685 C10.24741308 48.19012711 10.12339275 45.87635507 10 43.5625 C9.9084325 25.38726856 9.9084325 25.38726856 6 8 C4.68 8 3.36 8 2 8 C1.70577994 18.37942998 2.21670764 28.64461643 2.9375 39 C3.02435059 40.25192139 3.11120117 41.50384277 3.20068359 42.79370117 C3.56034325 47.7548106 3.92004848 52.69553226 4.59375 57.625 C5.04891706 61.40638792 4.69787346 64.2780082 4 68 C4.99 67.505 4.99 67.505 6 67 C11.82911532 66.53367077 15.72198142 67.77767639 21 70 C21 70.66 21 71.32 21 72 C21.5775 72.0825 22.155 72.165 22.75 72.25 C25.6539336 73.21797787 27.03740604 74.68694284 29 77 C29 77.66 29 78.32 29 79 C29.556875 79.061875 30.11375 79.12375 30.6875 79.1875 C33.96027621 80.33739434 35.57483431 82.52660658 38 85 C39.03041365 85.949442 40.06839549 86.89072737 41.11328125 87.82421875 C41.63857422 88.29537109 42.16386719 88.76652344 42.70507812 89.25195312 C43.79338477 90.22389162 44.88462532 91.19255319 45.97851562 92.15820312 C47.35606603 93.39885411 48.68282386 94.69542842 50 96 C50 96.66 50 97.32 50 98 C51.41601714 98.48108275 52.83284437 98.95978141 54.25 99.4375 C55.03890625 99.70433594 55.8278125 99.97117187 56.640625 100.24609375 C58.75081269 100.92037558 60.85067628 101.46889298 63 102 C73.75382826 105.04061917 81.45220418 110.84022074 89 119 C89.54140625 119.54785156 90.0828125 120.09570312 90.640625 120.66015625 C95.80479073 126.12743605 98.90027068 132.18740809 102 139 C102.99 139 103.98 139 105 139 C105.17015625 138.41992188 105.3403125 137.83984375 105.515625 137.2421875 C107.68690347 130.24327925 110.61176395 125.06167629 116 120 C116.763125 119.195625 117.52625 118.39125 118.3125 117.5625 C120.91659257 115.07952802 123.53969277 113.1590686 126.546875 111.2109375 C128.305195 109.9616727 128.305195 109.9616727 129 107 C131.1796875 106.12109375 131.1796875 106.12109375 133.875 105.4375 C137.18029394 104.58467634 139.10972477 103.92685016 142 102 C143.62991236 101.43129936 145.27830331 100.91405123 146.9375 100.4375 C147.79214844 100.18871094 148.64679688 99.93992187 149.52734375 99.68359375 C152 99 152 99 154.19140625 98.66015625 C156.17365628 98.15824047 156.17365628 98.15824047 157.04296875 96.15625 C157.35878906 95.4446875 157.67460937 94.733125 158 94 C161.60196479 89.86273062 165.72714761 86.41828191 170 83 C170.99 81.515 170.99 81.515 172 80 C172.70125 79.5875 173.4025 79.175 174.125 78.75 C176.73294691 77.16255405 178.59815927 75.57077837 180.8125 73.5 C185.81457385 69.05266742 190.20551144 67.18028958 196.875 66.75 C200 67 200 67 202 68 C201.91621094 67.26394531 201.83242188 66.52789062 201.74609375 65.76953125 C201.59333984 64.30580078 201.59333984 64.30580078 201.4375 62.8125 C201.33308594 61.84957031 201.22867188 60.88664062 201.12109375 59.89453125 C201 57 201 57 201.47265625 54.88549805 C202.20039914 50.90346417 202.23538249 46.97819075 202.31640625 42.9375 C202.33718735 42.06859131 202.35796844 41.19968262 202.37937927 40.30444336 C202.44452589 37.53637259 202.50352513 34.76820841 202.5625 32 C202.60573051 30.13801175 202.6493462 28.27603241 202.69335938 26.4140625 C202.94082926 16.70816239 202.94082926 16.70816239 203 7 C200.9837767 7.71563266 200.9837767 7.71563266 199 9 C197.59083447 12.74056882 197.71180669 16.8213898 197.53515625 20.7734375 C197.45650488 22.33724586 197.37772445 23.90104773 197.29882812 25.46484375 C197.18039488 27.90403353 197.06397576 30.34329215 196.95043945 32.78271484 C196.46967249 42.97163722 195.67450337 52.92437327 194 63 C192.125 63.625 192.125 63.625 190 64 C188 62 188 62 187.78710938 59.48168945 C187.80580078 58.43198975 187.82449219 57.38229004 187.84375 56.30078125 C187.86179687 55.13111816 187.87984375 53.96145508 187.8984375 52.75634766 C188.06583424 46.56508267 188.25933932 40.37638202 188.5 34.1875 C188.54769531 32.91068359 188.59539062 31.63386719 188.64453125 30.31835938 C188.76086862 27.21215159 188.87938938 24.10604428 189 21 C188.01 21 187.02 21 186 21 C183.49918682 30.4211669 183.0478255 40.0600959 182.32275391 49.74169922 C182.1495476 52.02375158 181.96589733 54.30478677 181.78125 56.5859375 C181.73222534 57.28592865 181.68320068 57.9859198 181.63269043 58.7071228 C181.34189958 62.25079383 181.01941305 63.97088043 179 67 C176.03 66.505 176.03 66.505 173 66 C172.875 59.25 172.875 59.25 174 57 C174.22133998 55.18963178 174.39161482 53.37287901 174.53515625 51.5546875 C174.66567383 49.94013672 174.66567383 49.94013672 174.79882812 48.29296875 C174.9293457 46.60107422 174.9293457 46.60107422 175.0625 44.875 C175.15337891 43.73933594 175.24425781 42.60367188 175.33789062 41.43359375 C175.56229226 38.62266799 175.78283166 35.81149234 176 33 C175.01 33 174.02 33 173 33 C171.30947753 39.22897904 170.43223519 45.22663958 169.87695312 51.64453125 C169.34758591 56.86189819 168.15761514 61.20062193 166 66 C163.3125 67.5 163.3125 67.5 161 68 C161 67.34 161 66.68 161 66 C160.34 65.67 159.68 65.34 159 65 C159.30035156 63.72511719 159.60070312 62.45023438 159.91015625 61.13671875 C161.23001235 55.20607247 162.00725993 49.22132519 162.76757812 43.19726562 C163.4542756 38.23862697 164.43575178 34.39102136 167 30 C167.4125 29.21625 167.825 28.4325 168.25 27.625 C170 26 170 26 173.6875 25.75 C174.780625 25.8325 175.87375 25.915 177 26 C177.66 23.36 178.32 20.72 179 18 C179.66 18 180.32 18 181 18 C181.185625 17.360625 181.37125 16.72125 181.5625 16.0625 C183 14 183 14 186.625 13.25 C187.73875 13.1675 188.8525 13.085 190 13 C190.3403125 11.453125 190.3403125 11.453125 190.6875 9.875 C191.97682144 5.50909085 193.57282786 3.05465343 197 0 C199.86690267 -0.88075979 202.13353871 -0.88764186 205 0 C206.71358345 1.46002218 208.10025833 3.0335899 209.5625 4.7421875 C210.036875 5.15726563 210.51125 5.57234375 211 6 C214.10615338 5.7602129 214.10615338 5.7602129 217 5 C219.25 5.9375 219.25 5.9375 221 8 C223.35341626 15.2982347 223.6167678 22.6962933 224.0625 30.3125 C224.21892357 32.82949747 224.37645929 35.34642609 224.53515625 37.86328125 C224.61137207 39.07580566 224.68758789 40.28833008 224.76611328 41.53759766 C225.19512904 47.888643 225.7770526 54.21374684 226.5546875 60.53125 C227.12184091 65.5222 227.14720485 70.48170279 227.125 75.5 C227.12886719 76.40492188 227.13273438 77.30984375 227.13671875 78.2421875 C227.13478516 79.52996094 227.13478516 79.52996094 227.1328125 80.84375 C227.13168457 81.61912109 227.13055664 82.39449219 227.12939453 83.19335938 C227 85 227 85 226 86 C225.77509693 87.40513005 225.60407247 88.81897727 225.45703125 90.234375 C224.1874959 101.23466186 222.57784585 110.27035951 217 120 C216.34 120 215.68 120 215 120 C214.73445312 120.58700684 214.46890625 121.17401367 214.1953125 121.77880859 C212.96596673 124.06324238 211.65394008 125.65928134 209.875 127.5390625 C209.25520264 128.19777344 208.63540527 128.85648438 207.99682617 129.53515625 C207.33787354 130.22480469 206.6789209 130.91445313 206 131.625 C204.9932019 132.68654297 204.9932019 132.68654297 203.96606445 133.76953125 C201.98402482 135.85284298 199.9938276 137.92797306 198 140 C197.45520996 140.5681543 196.91041992 141.13630859 196.34912109 141.72167969 C190.42529461 147.87595251 190.42529461 147.87595251 188 150 C187.34 150 186.68 150 186 150 C185.34 151.32 184.68 152.64 184 154 C183.34 154 182.68 154 182 154 C181.773125 154.5775 181.54625 155.155 181.3125 155.75 C179.65238361 158.59591381 177.60812043 159.99841921 175 162 C172.22710291 164.63425224 169.70205627 167.33431403 167.3125 170.3125 C166.549375 171.199375 165.78625 172.08625 165 173 C164.34 173 163.68 173 163 173 C163 173.66 163 174.32 163 175 C162.34 175 161.68 175 161 175 C161 175.66 161 176.32 161 177 C158.11420926 180.21013034 155.4078977 182.82026838 151.0625 183.375 C150.381875 183.25125 149.70125 183.1275 149 183 C149 180.69 149 178.38 149 176 C150.32 175.34 151.64 174.68 153 174 C153 173.34 153 172.68 153 172 C154.609375 170.44921875 154.609375 170.44921875 156.75 168.6875 C159.91535204 166.00056672 162.47506812 163.30853143 165 160 C169.36363636 155.30909091 169.36363636 155.30909091 172.1875 153.9375 C174.15008758 153.15216814 174.15008758 153.15216814 174.875 151.1875 C176.24784331 148.51808245 178.17463511 147.11639435 180.5 145.27734375 C182.18049784 143.93075539 182.18049784 143.93075539 183.875 141.625 C186.33502929 138.58614029 189.09894325 136.21964539 192.05859375 133.6796875 C196.92645389 129.468058 201.06213751 124.67860364 205.23046875 119.79296875 C205.81441406 119.20128906 206.39835938 118.60960937 207 118 C207.66 118 208.32 118 209 118 C209.268125 117.29875 209.53625 116.5975 209.8125 115.875 C211 113 211 113 212.4765625 110.30078125 C214.14656723 106.68243768 214.92298711 103.2104833 215.5625 99.3125 C215.80964006 97.88146622 216.05703638 96.45047667 216.3046875 95.01953125 C216.42166992 94.32811035 216.53865234 93.63668945 216.65917969 92.92431641 C216.94675408 91.30063346 217.28422358 89.68590455 217.6328125 88.07421875 C219.99049153 77.13259567 219.32957591 66.037461 218 55 C216.81273402 44.22873838 215.79462678 33.47847841 215.34179688 22.64868164 C215.20158821 19.54084211 214.98995447 16.96986341 214 14 C210.93616257 17.06383743 211.43211902 20.79211434 211.18359375 24.92578125 C211.12220718 25.82435349 211.06082062 26.72292572 210.99757385 27.64872742 C210.80221259 30.53614913 210.61959647 33.42421429 210.4375 36.3125 C210.24933836 39.15424796 210.05862897 41.9958164 209.86758423 44.83737183 C209.74548355 46.6795347 209.62677889 48.52192599 209.51156616 50.36453247 C209.26440812 54.28997578 209.00000316 58.20337271 208.58251953 62.11474609 C208.46376465 63.26668457 208.34500977 64.41862305 208.22265625 65.60546875 C208.10801025 66.5699292 207.99336426 67.53438965 207.87524414 68.52807617 C208.02970603 71.58859789 209.08309984 72.68288488 211 75 C211.11427842 80.02825053 208.89511341 82.88449443 205.890625 86.6328125 C202.77398849 90.53504746 199.89142203 94.61859014 196.953125 98.65625 C195.98632812 99.81640625 195.98632812 99.81640625 195 101 C194.34 101 193.68 101 193 101 C192.566875 102.2065625 192.566875 102.2065625 192.125 103.4375 C191 106 191 106 189 107 C188.67 107.99 188.34 108.98 188 110 C187.38253906 110.61359375 186.76507813 111.2271875 186.12890625 111.859375 C180.5514415 117.46754139 177.5101498 125.60900336 175 133 C173.02 133 171.04 133 169 133 C167.892399 123.25311119 173.34202938 114.44373006 178.66796875 106.64453125 C180 105 180 105 182 104 C183.11634152 102.34948712 183.11634152 102.34948712 184.125 100.4375 C185.053125 98.7359375 185.053125 98.7359375 186 97 C186.66 97 187.32 97 188 97 C188.309375 96.21625 188.61875 95.4325 188.9375 94.625 C190 92 190 92 191 90 C191.66 90 192.32 90 193 90 C193 89.34 193 88.68 193 88 C193.66 88 194.32 88 195 88 C195.3403125 86.9171875 195.3403125 86.9171875 195.6875 85.8125 C197.25037704 82.46347777 199.33585251 80.52752454 202 78 C202.33 77.34 202.66 76.68 203 76 C195.94255152 75.54792145 191.5515065 75.44491774 186 80 C185.34 80 184.68 80 184 80 C183.773125 80.804375 183.54625 81.60875 183.3125 82.4375 C182.879375 83.283125 182.44625 84.12875 182 85 C180.34178227 85.37309899 178.67422986 85.70700977 177 86 C175.81669817 87.86644906 175.81669817 87.86644906 175 90 C173.5 91.75 173.5 91.75 172 93 C171.34 93 170.68 93 170 93 C169.76925781 93.56589844 169.53851563 94.13179688 169.30078125 94.71484375 C167.66434829 97.58965842 165.66079606 99.37101878 163.1875 101.5625 C162.33542969 102.32691406 161.48335937 103.09132813 160.60546875 103.87890625 C156.59216693 107.14610699 153.33548605 109.19732107 148.1875 109.9375 C141.47022067 111.13880182 136.37307079 113.86686862 131 118 C130.34 118 129.68 118 129 118 C129 118.66 129 119.32 129 120 C128.236875 120.433125 127.47375 120.86625 126.6875 121.3125 C123.66953976 123.20749829 122.72895662 124.95374309 121 128 C120.34 128 119.68 128 119 128 C118.7421875 128.52335938 118.484375 129.04671875 118.21875 129.5859375 C117.28435431 131.43675973 116.32038429 133.27267658 115.34375 135.1015625 C114.7353125 136.26429688 114.126875 137.42703125 113.5 138.625 C112.8915625 139.77226562 112.283125 140.91953125 111.65625 142.1015625 C107.68074033 150.66950967 107.50579611 160.34919489 106.875 169.625 C106.74544922 171.41744141 106.74544922 171.41744141 106.61328125 173.24609375 C106.40321288 176.16370994 106.19890877 179.08160542 106 182 C103.625 182.625 103.625 182.625 101 183 C98.38756904 180.38756904 98.74847534 179.24690709 98.7265625 175.609375 C98.70033813 173.96618286 98.70033813 173.96618286 98.67358398 172.28979492 C98.65755127 171.1216626 98.64151855 169.95353027 98.625 168.75 C98.17943148 152.95110663 95.49135804 140.88112877 86 128 C85.34 127.67 84.68 127.34 84 127 C84 126.34 84 125.68 84 125 C83.34 125 82.68 125 82 125 C81.7525 124.195625 81.505 123.39125 81.25 122.5625 C80.8375 121.716875 80.425 120.87125 80 120 C78.67851173 119.62243192 77.34164079 119.2981424 76 119 C75.13375 118.236875 74.2675 117.47375 73.375 116.6875 C67.23285285 111.34583318 59.02925897 109.58586273 51.25 107.90625 C49 107 49 107 47.80078125 104.96484375 C47.53652344 104.31644531 47.27226562 103.66804688 47 103 C45.67592331 102.31513275 44.34090759 101.65129797 43 101 C41.86097808 99.89447873 40.72694919 98.78295167 39.62890625 97.63671875 C37.4286178 95.42587736 35.12501722 93.34291126 32.8125 91.25 C31.95269531 90.47140625 31.09289062 89.6928125 30.20703125 88.890625 C28.15018771 86.97415522 28.15018771 86.97415522 26 86 C26 85.34 26 84.68 26 84 C25.41347656 83.73445313 24.82695313 83.46890625 24.22265625 83.1953125 C21.95336387 81.97491976 20.35175853 80.58666961 18.4375 78.875 C13.55723822 75.07411559 8.94669657 75.40970291 3 76 C5.45639736 80.49631212 8.565932 84.1224127 11.9375 87.9375 C15.64075792 92.13149639 18.92300695 96.30995772 22 101 C23.2065625 102.1446875 23.2065625 102.1446875 24.4375 103.3125 C27.30256979 106.31732929 28.99485582 109.34507888 30.88671875 113.01171875 C31.96175311 115.14276494 31.96175311 115.14276494 34 117 C36.59268688 122.6079703 37.40609911 126.99212199 36 133 C34.35 133 32.7 133 31 133 C28.79686786 129.35343646 26.8726799 125.89045015 25.4375 121.875 C23.24948762 115.83191818 19.89155533 111.66731119 15.63671875 106.921875 C13.7931373 104.75709679 12.43016643 102.45171388 11 100 C9.9171875 98.948125 9.9171875 98.948125 8.8125 97.875 C7 96 7 96 7 93 C6.12408203 92.63261719 6.12408203 92.63261719 5.23046875 92.2578125 C0.62027062 89.65801601 -3.1542827 84.75208559 -4.70703125 79.69921875 C-5.10203939 76.81829268 -5.32205673 74.64411347 -4 72 C-3.34 72 -2.68 72 -2 72 C-2.38094327 65.63138318 -2.77276672 59.26350014 -3.171875 52.89599609 C-3.30617047 50.73338701 -3.438048 48.57062627 -3.56738281 46.40771484 C-3.75458056 43.28439241 -3.95069969 40.16173329 -4.1484375 37.0390625 C-4.20373627 36.08448151 -4.25903503 35.12990051 -4.31600952 34.14639282 C-4.86897955 23.77566671 -4.86897955 23.77566671 -8 14 C-9.92443825 23.72347745 -10.72302836 33.46719436 -11.43261719 43.3359375 C-11.62466832 45.99540705 -11.82734678 48.65391573 -12.03125 51.3125 C-13.41907609 69.83248679 -13.97004947 87.94416546 -8.1875 105.8125 C-7.95144043 106.55902832 -7.71538086 107.30555664 -7.47216797 108.07470703 C-5.82390915 112.81331551 -3.8337095 115.61947661 0 119 C4 123.64864865 4 123.64864865 4 126 C5.32 126.66 6.64 127.32 8 128 C8 128.66 8 129.32 8 130 C8.66 130 9.32 130 10 130 C10 130.66 10 131.32 10 132 C10.556875 132.061875 11.11375 132.12375 11.6875 132.1875 C14.99068042 133.3480769 16.71894733 135.40213446 19 138 C19 138.66 19 139.32 19 140 C19.66 140 20.32 140 21 140 C22.48046875 141.5390625 22.48046875 141.5390625 24.1875 143.625 C26.4835869 146.33466777 28.75017804 148.75296716 31.5 151 C34.83735921 153.74006897 37.52103636 156.83464466 40.30859375 160.12109375 C41.83078976 161.81203204 43.34882817 163.21223929 45.125 164.625 C48.25466043 167.21037166 50.45215754 169.84872117 53 173 C53.7425 173.70125 54.485 174.4025 55.25 175.125 C57.12679856 177.1358556 57.81746217 178.26193251 58 181 C57.34 181.66 56.68 182.32 56 183 C52.43687989 182.90369946 51.13754682 182.12723081 48.5 179.6875 C47.675 178.800625 46.85 177.91375 46 177 C45.175 176.34 44.35 175.68 43.5 175 C38.71090196 171.16872157 34.91277586 166.69533104 31 162 C27.53766823 158.36011275 23.86444532 155.19236787 20 152 C18.125 150.3125 18.125 150.3125 17 149 C17 148.34 17 147.68 17 147 C15.68 146.34 14.36 145.68 13 145 C13 144.34 13 143.68 13 143 C12.34 143 11.68 143 11 143 C11 142.34 11 141.68 11 141 C9.68 140.34 8.36 139.68 7 139 C7 138.34 7 137.68 7 137 C6.34 137 5.68 137 5 137 C3.44921875 135.390625 3.44921875 135.390625 1.6875 133.25 C-0.40578984 130.77294036 -2.26583713 128.7873303 -4.8125 126.75 C-7.12336461 124.90130831 -7.76963832 123.62477159 -9 121 C-9.62519531 120.44570313 -10.25039062 119.89140625 -10.89453125 119.3203125 C-13.57633661 116.36485353 -14.41750261 113.66887889 -15.625 109.875 C-16.23214844 108.01488281 -16.23214844 108.01488281 -16.8515625 106.1171875 C-24.65155844 79.50755371 -20.36824484 49.90320967 -17.5625 22.75 C-17.45260742 21.63222168 -17.34271484 20.51444336 -17.22949219 19.36279297 C-17.11379883 18.33041504 -16.99810547 17.29803711 -16.87890625 16.234375 C-16.7816626 15.33944336 -16.68441895 14.44451172 -16.58422852 13.52246094 C-15.82382997 10.2393695 -14.4055183 7.4055183 -12 5 C-9.66055264 5.28730055 -7.3260857 5.61936779 -5 6 C-4.54625 5.34 -4.0925 4.68 -3.625 4 C-3.08875 3.34 -2.5525 2.68 -2 2 C-1.34 2 -0.68 2 0 2 C0 1.34 0 0.68 0 0 Z " fill="#252524" transform="translate(94,138)"/>
<path d="M0 0 C2.81797795 2.49826014 3.31716836 4.81753446 3.8125 8.5 C3.96469345 12.13300487 3.83199372 14.64834957 1.875 17.75 C1.153125 18.513125 0.43125 19.27625 -0.3125 20.0625 C-0.9725 20.0625 -1.6325 20.0625 -2.3125 20.0625 C-2.3125 24.41077524 -1.71342905 25.59449138 0.6875 29.0625 C1.244375 29.619375 1.80125 30.17625 2.375 30.75 C2.808125 31.183125 3.24125 31.61625 3.6875 32.0625 C3.6875 32.7225 3.6875 33.3825 3.6875 34.0625 C4.3475 34.0625 5.0075 34.0625 5.6875 34.0625 C7.28264517 29.37888226 8.80982476 24.69011512 10.1875 19.9375 C11.40508408 15.82815374 12.94516241 11.98275958 14.6875 8.0625 C16.10724859 4.42523934 17.45265318 0.76704046 18.6875 -2.9375 C23.3411645 -4.04551536 26.51828324 -4.47528411 30.6875 -1.9375 C32.69383291 2.05039627 34.6875 6.53954795 34.6875 11.0625 C35.3475 11.0625 36.0075 11.0625 36.6875 11.0625 C36.84605469 11.72894531 37.00460937 12.39539063 37.16796875 13.08203125 C37.51794922 14.46455078 37.51794922 14.46455078 37.875 15.875 C38.09542969 16.76832031 38.31585938 17.66164063 38.54296875 18.58203125 C40.18093878 23.56302543 42.51776543 28.28908395 44.6875 33.0625 C45.0175 21.1825 45.3475 9.3025 45.6875 -2.9375 C52.37107083 -6.27928542 62.76714553 -3.49942514 69.6875 -1.9375 C70.1825 -1.4425 70.1825 -1.4425 70.6875 -0.9375 C71.0175 -1.5975 71.3475 -2.2575 71.6875 -2.9375 C73.62377769 -3.04557131 75.56177756 -3.1231225 77.5 -3.1875 C79.11841797 -3.25710937 79.11841797 -3.25710937 80.76953125 -3.328125 C83.6875 -2.9375 83.6875 -2.9375 85.57421875 -1.046875 C86.6875 1.0625 86.6875 1.0625 86.6875 3.0625 C87.6775 3.3925 88.6675 3.7225 89.6875 4.0625 C91.375 5.625 91.375 5.625 92.6875 7.0625 C93.05875 5.9796875 93.05875 5.9796875 93.4375 4.875 C95.03812827 1.2735864 96.80366681 -1.9955834 100.4375 -3.8125 C103.93276279 -4.00668127 107.22748326 -3.45650251 110.6875 -2.9375 C110.16378072 0.93802268 109.39407305 2.36906565 106.6875 5.0625 C105.83005649 6.47365312 105.01957468 7.91406971 104.25 9.375 C102.83225831 12.05607588 101.47700615 14.32590912 99.57421875 16.70703125 C96.99277282 21.29805 97.01884421 25.2536552 96.9375 30.4375 C96.89302734 31.82775391 96.89302734 31.82775391 96.84765625 33.24609375 C96.77739822 35.51777004 96.73013344 37.79013741 96.6875 40.0625 C92.7275 40.0625 88.7675 40.0625 84.6875 40.0625 C84.68492187 38.65097656 84.68234375 37.23945313 84.6796875 35.78515625 C84.73568598 21.73480314 84.73568598 21.73480314 77.6875 10.0625 C77.1925 9.0725 77.1925 9.0725 76.6875 8.0625 C76.57792969 8.72636719 76.46835937 9.39023438 76.35546875 10.07421875 C76.11763672 11.39873047 76.11763672 11.39873047 75.875 12.75 C75.64876953 14.05517578 75.64876953 14.05517578 75.41796875 15.38671875 C74.56684781 18.50446123 73.74557633 20.55094922 71.6875 23.0625 C68.55078125 23.98828125 68.55078125 23.98828125 65 24.375 C63.82050781 24.51550781 62.64101563 24.65601563 61.42578125 24.80078125 C60.52214844 24.88714844 59.61851562 24.97351563 58.6875 25.0625 C58.62691406 26.06152344 58.56632813 27.06054688 58.50390625 28.08984375 C58.37822266 30.02537109 58.37822266 30.02537109 58.25 32 C58.12818359 33.93166016 58.12818359 33.93166016 58.00390625 35.90234375 C57.6875 39.0625 57.6875 39.0625 56.6875 40.0625 C54.97977642 40.14963831 53.26851351 40.16950007 51.55859375 40.16015625 C50.52412109 40.15693359 49.48964844 40.15371094 48.42382812 40.15039062 C47.33521484 40.14201172 46.24660156 40.13363281 45.125 40.125 C43.4862793 40.11823242 43.4862793 40.11823242 41.81445312 40.11132812 C39.10541505 40.09949826 36.39648401 40.08301543 33.6875 40.0625 C32.6975 37.4225 31.7075 34.7825 30.6875 32.0625 C26.3975 31.7325 22.1075 31.4025 17.6875 31.0625 C17.3575 33.0425 17.0275 35.0225 16.6875 37.0625 C14.6875 40.0625 14.6875 40.0625 12.68798828 40.46655273 C10.0617778 40.49847673 7.43891379 40.52025985 4.8125 40.5 C3.44544922 40.5299707 3.44544922 40.5299707 2.05078125 40.56054688 C-4.64256457 40.55564691 -4.64256457 40.55564691 -7.84375 38.19921875 C-9.44134745 35.87505438 -10.8995612 33.50303065 -12.3125 31.0625 C-12.9725 30.4025 -13.6325 29.7425 -14.3125 29.0625 C-14.37308594 29.77277344 -14.43367188 30.48304688 -14.49609375 31.21484375 C-14.57988281 32.13394531 -14.66367187 33.05304688 -14.75 34 C-14.87181641 35.37478516 -14.87181641 35.37478516 -14.99609375 36.77734375 C-15.3125 39.0625 -15.3125 39.0625 -16.3125 40.0625 C-17.99858966 40.13455511 -19.68750659 40.14636068 -21.375 40.125 C-22.29410156 40.11597656 -23.21320313 40.10695313 -24.16015625 40.09765625 C-24.87042969 40.08605469 -25.58070313 40.07445312 -26.3125 40.0625 C-27.35135258 25.61131852 -27.52708534 11.52907895 -26.3125 -2.9375 C-16.79480517 -4.68707625 -8.5148906 -4.98040771 0 0 Z M-15.3125 6.0625 C-15.3125 9.0325 -15.3125 12.0025 -15.3125 15.0625 C-13.6625 15.0625 -12.0125 15.0625 -10.3125 15.0625 C-9.63576553 11.65929066 -9.63576553 11.65929066 -9.3125 8.0625 C-9.9725 7.4025 -10.6325 6.7425 -11.3125 6.0625 C-12.6325 6.0625 -13.9525 6.0625 -15.3125 6.0625 Z M58.6875 6.0625 C57.35101983 7.17351184 57.35101983 7.17351184 57.5625 10 C57.47424336 12.97795728 57.47424336 12.97795728 58.6875 15.0625 C60.35361905 15.105221 62.02132885 15.10313832 63.6875 15.0625 C65.01495166 13.94991409 65.01495166 13.94991409 64.9375 11.125 C64.81375 9.6090625 64.81375 9.6090625 64.6875 8.0625 C61.87240007 5.7851499 61.87240007 5.7851499 58.6875 6.0625 Z M23.6875 16.0625 C23.0275 18.0425 22.3675 20.0225 21.6875 22.0625 C23.6675 22.0625 25.6475 22.0625 27.6875 22.0625 C26.56895414 18.33635847 26.56895414 18.33635847 23.6875 16.0625 Z " fill="#1B1B1A" transform="translate(455.3125,241.9375)"/>
<path d="M0 0 C2.1875 1.875 2.1875 1.875 3 4 C2.17832089 7.36888435 0.8880431 10.00058554 -2 12 C-4.125 11.8125 -4.125 11.8125 -6 11 C-6.33 10.34 -6.66 9.68 -7 9 C-10.3 9 -13.6 9 -17 9 C-20.0591905 13.97118456 -20.79973229 18.28762648 -20 24 C-19.27489266 26.20072961 -19.27489266 26.20072961 -18 28 C-14.3278079 29.52430615 -12.02700946 30.24558922 -8.125 29.3125 C-5.68322807 28.11795489 -5.68322807 28.11795489 -5 25 C-7.64 25 -10.28 25 -13 25 C-13 21.7 -13 18.4 -13 15 C-9.85411056 14.97316303 -6.70844729 14.95324098 -3.5625 14.9375 C-2.21575195 14.92493164 -2.21575195 14.92493164 -0.84179688 14.91210938 C0.01220703 14.90888672 0.86621094 14.90566406 1.74609375 14.90234375 C2.53685303 14.89710693 3.3276123 14.89187012 4.14233398 14.88647461 C6 15 6 15 7 16 C7.10957031 15.38511719 7.21914063 14.77023438 7.33203125 14.13671875 C7.56986328 12.92435547 7.56986328 12.92435547 7.8125 11.6875 C7.96332031 10.88699219 8.11414063 10.08648437 8.26953125 9.26171875 C9.08500756 6.73679476 9.91953671 5.61930266 12 4 C12.66 4 13.32 4 14 4 C14.33 3.01 14.66 2.02 15 1 C20.53248298 -2.68832199 26.96194664 -3.71560439 33.46875 -2.5625 C38.49518934 -1.08807779 41.63752618 0.86896074 45 5 C45.7425 5.9075 46.485 6.815 47.25 7.75 C50.53848127 13.85717951 50.51872627 20.29229232 49 27 C47.4375 30.4375 47.4375 30.4375 46 33 C45.34 33 44.68 33 44 33 C43.7215625 33.86625 43.7215625 33.86625 43.4375 34.75 C41.2737709 38.13670642 38.74230807 39.77558712 35 41 C28.37443576 41.74990839 21.56401171 42.17300878 16 38 C15.67 37.01 15.34 36.02 15 35 C14.01 35 13.02 35 12 35 C10.61328125 33.25 10.61328125 33.25 9.3125 31 C8.87550781 30.2575 8.43851563 29.515 7.98828125 28.75 C7.49908203 27.88375 7.49908203 27.88375 7 27 C6.34 28.98 5.68 30.96 5 33 C4.34 33 3.68 33 3 33 C2.7215625 33.86625 2.7215625 33.86625 2.4375 34.75 C0.28766134 38.11496486 -2.2984488 39.74262732 -6 41 C-13.76096092 42.06460369 -19.36115741 41.08544159 -26 37 C-26 36.34 -26 35.68 -26 35 C-26.99 34.67 -27.98 34.34 -29 34 C-33.34375137 28.14267416 -33.45995444 21.16202673 -32.6796875 14.1015625 C-31.93810126 10.08757985 -31.29124189 7.43686284 -29 4 C-28.34 4 -27.68 4 -27 4 C-27 3.01 -27 2.02 -27 1 C-17.24800132 -2.95017668 -9.84857417 -4.58164285 0 0 Z M24 8 C24 8.66 24 9.32 24 10 C23.34 10 22.68 10 22 10 C19.18226128 13.46798612 18.47614899 16.53785097 18.63671875 21 C19.23461509 24.29164434 20.90099046 26.46884144 23 29 C26.09173752 30.54586876 28.59429552 30.29359521 32 30 C34.9583814 27.9758443 35.81945813 26.62495263 36.8125 23.1875 C37.10795753 18.16472205 36.81386751 13.30356207 34 9 C31.71294169 7.85647084 30.40735238 7.89665561 27.875 7.9375 C26.59625 7.958125 25.3175 7.97875 24 8 Z " fill="#1B1B1B" transform="translate(505,189)"/>
<path d="M0 0 C2.33769755 3.0462368 3.34359956 6.148604 4.39453125 9.78125 C6.19925677 15.74798274 6.19925677 15.74798274 9.01953125 21.28125 C12.31557568 26.88452554 13.68623778 33.12238617 14.89453125 39.46875 C15.55453125 39.46875 16.21453125 39.46875 16.89453125 39.46875 C16.89453125 26.26875 16.89453125 13.06875 16.89453125 -0.53125 C21.9856296 -1.54946967 23.41377531 -1.77162797 27.89453125 0.46875 C32.51362296 5.9891279 36.61102067 12.61821826 38.89453125 19.46875 C39.55453125 19.46875 40.21453125 19.46875 40.89453125 19.46875 C40.70890625 18.581875 40.52328125 17.695 40.33203125 16.78125 C39.47614618 11.02780036 40.33226371 5.22117941 40.89453125 -0.53125 C44.97719811 -1.89213895 47.65381226 -1.21523693 51.89453125 -0.53125 C52.89453125 0.46875 52.89453125 0.46875 53.00805664 4.43774414 C53.00789745 6.20980607 53.0021991 7.9818726 52.9921875 9.75390625 C52.99077255 10.68472519 52.9893576 11.61554413 52.98789978 12.5745697 C52.98228297 15.56016191 52.96972765 18.54568029 52.95703125 21.53125 C52.95201841 23.55012913 52.94745513 25.56900943 52.94335938 27.58789062 C52.93230808 32.54820572 52.9150322 37.50846532 52.89453125 42.46875 C51.31439908 42.71903811 49.73010819 42.94315946 48.14453125 43.15625 C46.82195312 43.34767578 46.82195312 43.34767578 45.47265625 43.54296875 C42.28204824 43.45111791 41.14565783 42.68438584 38.89453125 40.46875 C38.56453125 39.47875 38.23453125 38.48875 37.89453125 37.46875 C36.90453125 36.97375 36.90453125 36.97375 35.89453125 36.46875 C35.89453125 35.47875 35.89453125 34.48875 35.89453125 33.46875 C34.90453125 32.97375 34.90453125 32.97375 33.89453125 32.46875 C32.78122444 30.45088141 31.85249255 28.37679034 30.89453125 26.28125 C30.02308556 24.29673477 30.02308556 24.29673477 27.89453125 23.46875 C27.56453125 29.73875 27.23453125 36.00875 26.89453125 42.46875 C19.63453125 42.46875 12.37453125 42.46875 4.89453125 42.46875 C1.89453125 36.46875 1.89453125 36.46875 1.89453125 34.46875 C-2.72546875 34.46875 -7.34546875 34.46875 -12.10546875 34.46875 C-12.43546875 35.78875 -12.76546875 37.10875 -13.10546875 38.46875 C-13.76546875 39.78875 -14.42546875 41.10875 -15.10546875 42.46875 C-18.73546875 42.46875 -22.36546875 42.46875 -26.10546875 42.46875 C-25.34621031 38.67245779 -24.4913821 35.4969451 -23.16796875 31.90625 C-22.82894531 30.97683594 -22.48992187 30.04742187 -22.140625 29.08984375 C-21.10546875 26.46875 -21.10546875 26.46875 -20.13061523 24.55078125 C-19.15461647 22.56856704 -18.38982401 20.62145049 -17.66796875 18.53515625 C-17.41273438 17.80361328 -17.1575 17.07207031 -16.89453125 16.31835938 C-16.63414062 15.56361328 -16.37375 14.80886719 -16.10546875 14.03125 C-11.55980515 0.9230864 -11.55980515 0.9230864 -10.10546875 -0.53125 C-2.85507255 -2.0764164 -2.85507255 -2.0764164 0 0 Z M-6.10546875 19.46875 C-6.43546875 21.11875 -6.76546875 22.76875 -7.10546875 24.46875 C-5.78546875 24.46875 -4.46546875 24.46875 -3.10546875 24.46875 C-3.43546875 22.81875 -3.76546875 21.16875 -4.10546875 19.46875 C-4.76546875 19.46875 -5.42546875 19.46875 -6.10546875 19.46875 Z " fill="#171716" transform="translate(380.10546875,185.53125)"/>
<path d="M0 0 C9.89236081 -0.69773705 16.94709928 0.21666956 24.84375 6.45703125 C30.16170595 11.39699524 32.42090609 16.61193937 33.00390625 23.703125 C32.99163876 30.91640937 29.94465854 38.08301219 26 44 C26 44.66 26 45.32 26 46 C26.86625 46.2784375 26.86625 46.2784375 27.75 46.5625 C30.99653501 48.63667515 32.60618772 51.49369097 34 55 C34.25 58.4375 34.25 58.4375 34 61 C33.34 61 32.68 61 32 61 C31.7525 61.556875 31.505 62.11375 31.25 62.6875 C28.90677083 67.02247396 25.6543411 70.71109301 22 74 C21.34 74 20.68 74 20 74 C20 74.66 20 75.32 20 76 C19.34 76 18.68 76 18 76 C17.505 77.485 17.505 77.485 17 79 C16.34 79 15.68 79 15 79 C14.505 80.485 14.505 80.485 14 82 C13.34 82 12.68 82 12 82 C11.505 83.485 11.505 83.485 11 85 C9.52943944 86.2418067 8.05508683 87.47998473 6.546875 88.67578125 C4.37981764 90.53091369 2.77141888 92.77144077 1 95 C-0.64639965 96.35827971 -2.31295807 97.69254251 -4 99 C-4.721875 99.7425 -5.44375 100.485 -6.1875 101.25 C-8 103 -8 103 -10 103 C-10 103.66 -10 104.32 -10 105 C-13.70513055 107.47008703 -16.70206853 107.65991861 -21 107 C-25.28964158 104.54877624 -27.64349116 100.87448887 -30.27734375 96.8046875 C-35.04919479 91.80560546 -43.57422281 92.17504331 -50.0625 91.5625 C-51.13822266 91.43423828 -52.21394531 91.30597656 -53.32226562 91.17382812 C-59.66289177 90.45578711 -59.66289177 90.45578711 -65.12109375 93.33984375 C-66.05115234 94.65662109 -66.05115234 94.65662109 -67 96 C-67.99 96.99 -67.99 96.99 -69 98 C-72.83977998 97.93018582 -75.14125373 97.88737115 -77.875 95.0625 C-81.10897801 86.25889319 -80.11091348 76.24278992 -80 67 C-76.89046621 65.4452331 -74.43733239 65.71355563 -71 66 C-68.95708818 67.26660533 -66.95309888 68.59886384 -65 70 C-60.21750586 71.80959238 -55.76968008 70.25736664 -51 69 C-51 68.34 -51 67.68 -51 67 C-51.66 67 -52.32 67 -53 67 C-53.99 64.03 -53.99 64.03 -55 61 C-55.66 61 -56.32 61 -57 61 C-60.31438796 56.93187272 -63.11106086 52.33092105 -63 47 C-61.69972984 43.15697931 -60.46415388 39.84275524 -56.85546875 37.765625 C-56.24316406 37.51296875 -55.63085938 37.2603125 -55 37 C-55 36.34 -55 35.68 -55 35 C-54.34 35 -53.68 35 -53 35 C-52.7525 34.38125 -52.505 33.7625 -52.25 33.125 C-50.76259631 30.59641373 -49.56321991 30.28160996 -47 29 C-46.690625 28.38125 -46.38125 27.7625 -46.0625 27.125 C-44.62180528 24.24361056 -42.54557684 22.93948711 -40 21 C-39.278125 20.2575 -38.55625 19.515 -37.8125 18.75 C-36 17 -36 17 -34 17 C-33.79375 16.236875 -33.5875 15.47375 -33.375 14.6875 C-31.52607642 11.07369482 -29.76971055 10.37739424 -26 9 C-20.86492939 8.34445907 -17.54026328 9.82067363 -13 12 C-12.92523438 11.40703125 -12.85046875 10.8140625 -12.7734375 10.203125 C-11.72890856 7.22780014 -10.25339002 6.43421108 -7.625 4.75 C-6.83351563 4.22921875 -6.04203125 3.7084375 -5.2265625 3.171875 C-3 2 -3 2 0 2 C0 1.34 0 0.68 0 0 Z M1.5 6.375 C0.7265625 6.63023438 -0.046875 6.88546875 -0.84375 7.1484375 C-3.23742522 8.00640377 -3.23742522 8.00640377 -6 10 C-6 10.66 -6 11.32 -6 12 C-6.99 12.33 -7.98 12.66 -9 13 C-9 13.66 -9 14.32 -9 15 C-9.99 15.33 -10.98 15.66 -12 16 C-12 16.99 -12 17.98 -12 19 C-16.70428571 17.34714286 -16.70428571 17.34714286 -18.4375 15.3125 C-20.01882358 13.69850371 -20.01882358 13.69850371 -22.8125 14 C-26.9852171 15.30908772 -28.90346607 16.90346607 -32 20 C-32.94436349 22.16531168 -32.94436349 22.16531168 -33 24 C-34.32 24.33 -35.64 24.66 -37 25 C-37 25.66 -37 26.32 -37 27 C-37.66 27 -38.32 27 -39 27 C-39 27.66 -39 28.32 -39 29 C-39.66 29 -40.32 29 -41 29 C-41 29.66 -41 30.32 -41 31 C-41.61875 31.2475 -42.2375 31.495 -42.875 31.75 C-45.13746494 32.82143729 -45.13746494 32.82143729 -46 35 C-47 37 -47 37 -48.86328125 37.91796875 C-53.19766753 40.11289562 -56.17436395 44.21836432 -58.1875 48.5625 C-57.95326276 51.60758409 -56.71819814 52.92509749 -54.671875 55.109375 C-51.72959347 58.43662795 -49.30752966 62.16511044 -46.76953125 65.8046875 C-46.18558594 66.52914062 -45.60164063 67.25359375 -45 68 C-44.34 68 -43.68 68 -43 68 C-43 69.98 -43 71.96 -43 74 C-44.0003125 73.97421875 -45.000625 73.9484375 -46.03125 73.921875 C-49.99433912 73.99988857 -53.60238149 74.55744795 -57.5 75.25 C-65.56525479 76.39989771 -65.56525479 76.39989771 -69.375 74.25 C-72 72 -72 72 -73 70 C-73.66 70 -74.32 70 -75 70 C-74.85775413 72.52108103 -74.71129879 75.04180403 -74.5625 77.5625 C-74.52318359 78.26697266 -74.48386719 78.97144531 -74.44335938 79.69726562 C-74.17481721 84.1798541 -73.69383803 88.56293497 -73 93 C-69.52100842 91.60840337 -68.51947499 90.36748512 -67 87 C-54.32095475 86.77313836 -41.66333533 87.44343494 -29 88 C-28.69296143 88.6172998 -28.38592285 89.23459961 -28.06958008 89.87060547 C-24.81746614 96.6280597 -24.81746614 96.6280597 -19.4375 101.5625 C-16.7485708 102.04512832 -15.48655503 102.12296033 -13 101 C-10.72855926 99.14567913 -10.72855926 99.14567913 -9 97 C-9 96.34 -9 95.68 -9 95 C-8.01 94.67 -7.02 94.34 -6 94 C-4.2530631 92.23874611 -4.2530631 92.23874611 -2.5625 90.125 C-0.72221385 87.89360158 0.8860263 86.0837276 3.22265625 84.3671875 C3.80917969 83.91601562 4.39570313 83.46484375 5 83 C5 82.34 5 81.68 5 81 C5.928125 80.62875 5.928125 80.62875 6.875 80.25 C9.13746494 79.17856271 9.13746494 79.17856271 10 77 C11.24508396 74.50983207 12.46716796 74.01313282 15 73 C15 72.34 15 71.68 15 71 C15.5775 70.7525 16.155 70.505 16.75 70.25 C19.32939979 68.81700012 21.06121592 67.21575324 23 65 C23 64.34 23 63.68 23 63 C23.66 63 24.32 63 25 63 C26.74882038 61.92005135 26.74882038 61.92005135 28 60 C28.66721536 57.08559301 28.66721536 57.08559301 28 54 C25.37632897 50.79329096 22.84788585 48.5676572 19 47 C20.00534843 42.97860627 21.40518166 40.40314603 24.0625 37.3125 C27.78196819 32.52379894 28.49430233 27.98276264 28 22 C26.58216816 16.12612524 23.69150353 11.85104046 18.9375 8.15234375 C13.38454495 4.84967895 7.56434141 4.33333839 1.5 6.375 Z " fill="#363636" transform="translate(323,28)"/>
<path d="M0 0 C0.68191406 0.19335938 1.36382812 0.38671875 2.06640625 0.5859375 C9.23303459 2.7457433 13.83056801 7.78084285 17.9375 13.875 C19.59190235 18.74088927 20.97511091 24.26968946 19.19921875 29.2421875 C18 31 18 31 15 32 C15.66 33.98 16.32 35.96 17 38 C17.99 37.67 18.98 37.34 20 37 C21.03038956 34.43957934 21.03038956 34.43957934 21.6875 31.4375 C21.93886719 30.42558594 22.19023437 29.41367188 22.44921875 28.37109375 C22.63097656 27.58863281 22.81273437 26.80617187 23 26 C23.66 26 24.32 26 25 26 C25.18175781 25.36191406 25.36351562 24.72382813 25.55078125 24.06640625 C25.80214844 23.24011719 26.05351562 22.41382813 26.3125 21.5625 C26.55613281 20.73878906 26.79976562 19.91507813 27.05078125 19.06640625 C27.36402344 18.38449219 27.67726562 17.70257813 28 17 C28.99 16.67 29.98 16.34 31 16 C31.268125 15.13375 31.53625 14.2675 31.8125 13.375 C33.44239322 8.7426719 36.49759806 4.25120097 41 2 C42.99960012 1.960008 45.00047242 1.95653201 47 2 C46.58525633 7.28798182 45.64775386 10.11690718 42 14 C42.99 14.99 42.99 14.99 44 16 C43.625 19.625 43.625 19.625 43 23 C42.39671875 22.979375 41.7934375 22.95875 41.171875 22.9375 C36.3280375 22.99786056 36.3280375 22.99786056 32.4765625 25.6015625 C29.87810048 30.37462395 29.69794487 33.79177947 31 39 C29.35 39 27.7 39 26 39 C26.00523682 39.62567871 26.01047363 40.25135742 26.01586914 40.89599609 C26.03661618 43.72232057 26.04965286 46.54862905 26.0625 49.375 C26.07087891 50.35984375 26.07925781 51.3446875 26.08789062 52.359375 C26.09111328 53.30039063 26.09433594 54.24140625 26.09765625 55.2109375 C26.10289307 56.08024902 26.10812988 56.94956055 26.11352539 57.84521484 C26 60 26 60 25 62 C23.35 62 21.7 62 20 62 C18.73762269 59.47524538 18.90143596 57.68799534 18.9375 54.875 C18.94652344 53.96492188 18.95554688 53.05484375 18.96484375 52.1171875 C18.97644531 51.41851562 18.98804688 50.71984375 19 50 C17.824375 50.061875 17.824375 50.061875 16.625 50.125 C14 50 14 50 12 48 C11.938125 46.783125 11.87625 45.56625 11.8125 44.3125 C11.36108053 39.63647567 9.16037945 37.52970886 5.7890625 34.4453125 C1.84671972 31.26045043 -1.01022249 30.56488047 -6 30 C-6 27.33333333 -6 24.66666667 -6 22 C-6.515625 21.38125 -7.03125 20.7625 -7.5625 20.125 C-9 18 -9 18 -8.6875 15.25 C-8.460625 14.5075 -8.23375 13.765 -8 13 C-4.89435865 11.96478622 -2.9768292 11.86646537 0.1640625 12.80078125 C3.56633617 15.02311746 4.88160338 18.77545861 6.54296875 22.37109375 C8.05964744 25.10762126 9.38298047 26.34685061 12 28 C11.72108641 21.72444434 10.79117552 18.01413536 7 13 C7 12.34 7 11.68 7 11 C-3.69299948 6.51097586 -3.69299948 6.51097586 -15 6 C-17.22303517 7.32265515 -17.22303517 7.32265515 -18 10 C-17.49898437 16.1791928 -15.43443921 23.56556079 -11 28 C-9 30 -9 30 -7.6875 33.6875 C-7.130625 34.780625 -6.57375 35.87375 -6 37 C-2.41136476 38.0615942 -2.41136476 38.0615942 1 38 C1 37.34 1 36.68 1 36 C2.485 36.495 2.485 36.495 4 37 C5.05082025 40.76543923 5.3391456 42.3759721 3.4375 45.875 C1 48 1 48 -1.75 48.75 C-6.56853322 47.6380308 -9.7426943 44.65413483 -13 41 C-13 40.34 -13 39.68 -13 39 C-13.66 39 -14.32 39 -15 39 C-27.88058065 14.08295443 -27.88058065 14.08295443 -26.25 7.3125 C-25.8375 6.219375 -25.425 5.12625 -25 4 C-24.34 4 -23.68 4 -23 4 C-22.7525 3.21625 -22.505 2.4325 -22.25 1.625 C-21 -1 -21 -1 -19.375 -2.3125 C-12.31474445 -4.35625818 -6.60582033 -2.48443858 0 0 Z " fill="#9FDD9E" transform="translate(177,194)"/>
<path d="M0 0 C19 0 19 0 26 3 C29.06806264 6.45909023 30 10.06399771 30 14.625 C28.62352068 19.2706177 26.41040922 22.58959078 23 26 C24.2375 27.423125 24.2375 27.423125 25.5 28.875 C28 31.75 28 31.75 28 34 C28.66 34 29.32 34 30 34 C33 39.75 33 39.75 33 42 C28.95424619 42.76785439 25.11863509 43.31226253 21 43 C18.49551029 41.0870785 17.42162443 38.76201317 16 36 C14.70220368 34.63205253 13.3835924 33.28110407 12 32 C11.67 35.3 11.34 38.6 11 42 C2.25 43.125 2.25 43.125 0 42 C0 28.14 0 14.28 0 0 Z M12 9 C11.67 11.64 11.34 14.28 11 17 C11.99 17.33 12.98 17.66 14 18 C16.14567913 16.27144074 16.14567913 16.27144074 18 14 C17.86358623 11.78141747 17.86358623 11.78141747 17 10 C15.35 9.67 13.7 9.34 12 9 Z " fill="#1D1D1D" transform="translate(557,187)"/>
<path d="M0 0 C0.79066335 2.77147112 1.10579979 5.15707397 1.02172852 8.03417969 C1.00163223 8.81468689 0.98153595 9.59519409 0.96083069 10.39935303 C0.92027809 11.6480014 0.92027809 11.6480014 0.87890625 12.921875 C0.84348976 14.21185394 0.84348976 14.21185394 0.80735779 15.52789307 C0.73091789 18.26877155 0.64680911 21.00935339 0.5625 23.75 C0.50925961 25.61066267 0.45651935 27.47133973 0.40429688 29.33203125 C0.27532941 33.88820791 0.13948466 38.44413368 0 43 C-3.63 43 -7.26 43 -11 43 C-11 37.39 -11 31.78 -11 26 C-14.63 26.33 -18.26 26.66 -22 27 C-22 32.28 -22 37.56 -22 43 C-25.3 43 -28.6 43 -32 43 C-32.82334461 36.54393271 -33.15857205 30.25518448 -33.125 23.75 C-33.12306641 22.83774658 -33.12113281 21.92549316 -33.11914062 20.9855957 C-33.07438809 13.95136807 -32.72725411 6.99982085 -32 0 C-28.7 0 -25.4 0 -22 0 C-22 4.95 -22 9.9 -22 15 C-18.37 15.33 -14.74 15.66 -11 16 C-11 10.72 -11 5.44 -11 0 C-6.50797614 -0.89840477 -4.31619303 -0.90338924 0 0 Z " fill="#181818" transform="translate(396,239)"/>
<path d="M0 0 C9.89236081 -0.69773705 16.94709928 0.21666956 24.84375 6.45703125 C30.16170595 11.39699524 32.42090609 16.61193937 33.00390625 23.703125 C32.99163876 30.91640937 29.94465854 38.08301219 26 44 C26 44.66 26 45.32 26 46 C26.86625 46.2784375 26.86625 46.2784375 27.75 46.5625 C30.99653501 48.63667515 32.60618772 51.49369097 34 55 C34.25 58.4375 34.25 58.4375 34 61 C33.34 61 32.68 61 32 61 C31.7525 61.556875 31.505 62.11375 31.25 62.6875 C28.90677083 67.02247396 25.6543411 70.71109301 22 74 C21.34 74 20.68 74 20 74 C20 74.66 20 75.32 20 76 C19.34 76 18.68 76 18 76 C17.505 77.485 17.505 77.485 17 79 C16.34 79 15.68 79 15 79 C14.505 80.485 14.505 80.485 14 82 C13.34 82 12.68 82 12 82 C11.505 83.485 11.505 83.485 11 85 C9.52943944 86.2418067 8.05508683 87.47998473 6.546875 88.67578125 C4.37981764 90.53091369 2.77141888 92.77144077 1 95 C-0.64639965 96.35827971 -2.31295807 97.69254251 -4 99 C-4.721875 99.7425 -5.44375 100.485 -6.1875 101.25 C-8 103 -8 103 -10 103 C-10 103.66 -10 104.32 -10 105 C-13.70513055 107.47008703 -16.70206853 107.65991861 -21 107 C-24.65304396 104.91254631 -26.61601598 102.18275152 -29 98.8125 C-31.27890957 95.59200939 -31.27890957 95.59200939 -34.875 94 C-35.57625 94 -36.2775 94 -37 94 C-36.38125 93.71125 -35.7625 93.4225 -35.125 93.125 C-32.86674235 92.06279958 -32.86674235 92.06279958 -31 90 C-31.66 89.34 -32.32 88.68 -33 88 C-31.68 88 -30.36 88 -29 88 C-27.078125 90.1171875 -27.078125 90.1171875 -25.25 92.875 C-24.63640625 93.77992187 -24.0228125 94.68484375 -23.390625 95.6171875 C-22 98 -22 98 -22 100 C-19.03 100.33 -16.06 100.66 -13 101 C-12.34 99.68 -11.68 98.36 -11 97 C-10.34 97 -9.68 97 -9 97 C-9 96.34 -9 95.68 -9 95 C-7.125 92.875 -7.125 92.875 -5 91 C-4.34 91 -3.68 91 -3 91 C-2.773125 90.4225 -2.54625 89.845 -2.3125 89.25 C-0.65238361 86.40408619 1.39187957 85.00158079 4 83 C6.82004321 80.32457439 9.39539153 77.5485537 11.875 74.5625 C14.51352248 71.42368624 17.3931355 68.83113806 20.58203125 66.26171875 C22.1369442 65.03520707 22.1369442 65.03520707 23 63 C23.66 63 24.32 63 25 63 C25.33 62.01 25.66 61.02 26 60 C26.66 60 27.32 60 28 60 C27.74502562 55.95145138 27.74502562 55.95145138 27 52 C25.23377831 50.57518232 25.23377831 50.57518232 23 50 C20.75 48.6875 20.75 48.6875 19 47 C18.5717355 43.89895225 18.64170301 42.49581567 20.49609375 39.9296875 C21.45708984 38.91261719 21.45708984 38.91261719 22.4375 37.875 C26.59110503 32.80305228 27.50182795 28.48659087 27 22 C26.37402199 18.81405222 25.64988065 15.81527254 24 13 C23.01 12.67 22.02 12.34 21 12 C20.443125 11.360625 19.88625 10.72125 19.3125 10.0625 C15.37292563 6.54882556 11.35640521 5.86964567 6.24609375 6.15234375 C0.04015411 7.03890656 -3.62365353 8.50537389 -8 13 C-8.33 12.01 -8.66 11.02 -9 10 C-9.66 10 -10.32 10 -11 10 C-10.9375 8.25 -10.9375 8.25 -10 6 C-6.7838181 3.55272534 -4.07605096 2 0 2 C0 1.34 0 0.68 0 0 Z " fill="#383836" transform="translate(323,28)"/>
<path d="M0 0 C0.98033203 -0.00128906 1.96066406 -0.00257813 2.97070312 -0.00390625 C4.51854492 0.00189453 4.51854492 0.00189453 6.09765625 0.0078125 C7.12568359 0.00394531 8.15371094 0.00007812 9.21289062 -0.00390625 C10.68532227 -0.00197266 10.68532227 -0.00197266 12.1875 0 C13.54476196 0.00169189 13.54476196 0.00169189 14.92944336 0.00341797 C17.16015625 0.1328125 17.16015625 0.1328125 19.16015625 1.1328125 C19.7612337 4.45007955 19.9044911 7.76655465 20.16015625 11.1328125 C15.54015625 11.1328125 10.92015625 11.1328125 6.16015625 11.1328125 C6.16015625 13.1128125 6.16015625 15.0928125 6.16015625 17.1328125 C10.12015625 17.1328125 14.08015625 17.1328125 18.16015625 17.1328125 C18.16015625 20.4328125 18.16015625 23.7328125 18.16015625 27.1328125 C14.20015625 27.1328125 10.24015625 27.1328125 6.16015625 27.1328125 C6.49015625 29.1128125 6.82015625 31.0928125 7.16015625 33.1328125 C7.84722656 33.10960937 8.53429687 33.08640625 9.2421875 33.0625 C10.14324219 33.04445313 11.04429687 33.02640625 11.97265625 33.0078125 C12.86597656 32.98460937 13.75929688 32.96140625 14.6796875 32.9375 C17.16015625 33.1328125 17.16015625 33.1328125 20.16015625 35.1328125 C20.63130363 37.8755633 20.33821409 40.32840147 20.16015625 43.1328125 C18.4576107 44.83535805 16.24420261 44.54396008 13.91015625 44.7578125 C12.95625 44.85320312 12.00234375 44.94859375 11.01953125 45.046875 C5.36797094 45.17271946 -0.21356928 44.6334645 -5.83984375 44.1328125 C-5.86448888 38.0272654 -5.88267746 31.92174699 -5.89477539 25.81616211 C-5.89981663 23.73738094 -5.90664949 21.65860334 -5.9152832 19.57983398 C-5.92735797 16.59878664 -5.93307399 13.61778601 -5.9375 10.63671875 C-5.94524193 9.23360191 -5.94524193 9.23360191 -5.95314026 7.80213928 C-5.95321579 6.94132248 -5.95329132 6.08050568 -5.95336914 5.19360352 C-5.95558975 4.43193375 -5.95781036 3.67026398 -5.96009827 2.88551331 C-5.70576725 -0.82134277 -3.1153479 0.00388828 0 0 Z " fill="#1F1F1F" transform="translate(405.83984375,237.8671875)"/>
<path d="M0 0 C3.06245176 3.33266809 5.09815532 5.99235232 5.15234375 10.67578125 C4.7283411 15.75610395 3.68647157 20.45458845 2.125 25.3125 C1.94324219 26.02535156 1.76148438 26.73820312 1.57421875 27.47265625 C-1.60368314 39.46289957 -7.19112434 50.7663053 -16.8125 58.75 C-20.4796122 60.62097561 -22.80833851 60.77287677 -26.875 60.3125 C-29.875 58.3125 -29.875 58.3125 -30.5625 55.6875 C-30.665625 54.90375 -30.76875 54.12 -30.875 53.3125 C-27.875 51.3125 -27.875 51.3125 -24.5625 51.6875 C-20.8954275 51.71445985 -20.8954275 51.71445985 -19.15625 49.5390625 C-18.10861498 48.07545476 -17.10014268 46.58286215 -16.13671875 45.0625 C-15.72035156 44.485 -15.30398437 43.9075 -14.875 43.3125 C-14.215 43.3125 -13.555 43.3125 -12.875 43.3125 C-12.70484375 42.6834375 -12.5346875 42.054375 -12.359375 41.40625 C-11.15898293 37.16656738 -9.92850565 33.15955884 -7.875 29.25 C-4.11452219 22.03394799 -2.17027098 16.40996286 -3.875 8.3125 C-4.37 7.3225 -4.37 7.3225 -4.875 6.3125 C-12.52635122 4.25252083 -18.58044324 6.82308777 -25.875 9.3125 C-27.20360925 9.66419068 -28.53506413 10.00678648 -29.875 10.3125 C-29.875 10.9725 -29.875 11.6325 -29.875 12.3125 C-31.484375 13.64453125 -31.484375 13.64453125 -33.625 15.125 C-36.34476646 17.06700868 -37.98364001 18.45948354 -40 21.1875 C-41.875 23.3125 -41.875 23.3125 -45.125 23.625 C-46.0325 23.521875 -46.94 23.41875 -47.875 23.3125 C-46.97621122 15.89749256 -43.08196042 11.10174055 -37.65625 6.37890625 C-35.875 5.3125 -35.875 5.3125 -31.875 5.3125 C-31.875 4.6525 -31.875 3.9925 -31.875 3.3125 C-22.48304743 -2.10285989 -10.11894091 -5.93937836 0 0 Z " fill="#A1DFA0" transform="translate(240.875,177.6875)"/>
<path d="M0 0 C0 3.3 0 6.6 0 10 C-5.02296004 11.13016601 -8.97874074 10.77916092 -14 10 C-13.814375 10.598125 -13.62875 11.19625 -13.4375 11.8125 C-13 14 -13 14 -14 17 C-12.71802734 16.87431641 -12.71802734 16.87431641 -11.41015625 16.74609375 C-10.30542969 16.64425781 -9.20070313 16.54242188 -8.0625 16.4375 C-6.40927734 16.28087891 -6.40927734 16.28087891 -4.72265625 16.12109375 C-3.82417969 16.08113281 -2.92570312 16.04117188 -2 16 C-1 17 -1 17 -0.90234375 19.06640625 C-0.93489583 21.37760417 -0.96744792 23.68880208 -1 26 C-5.29 26 -9.58 26 -14 26 C-14 28.31 -14 30.62 -14 33 C-9.38 33 -4.76 33 0 33 C0 36.3 0 39.6 0 43 C-8.06054302 44.27271732 -15.91183419 43.92848842 -24 43 C-25.92257175 41.07742825 -25.12908424 38.21914892 -25.13894653 35.66125488 C-25.1369223 34.77272827 -25.13489807 33.88420166 -25.1328125 32.96875 C-25.13376923 32.06249878 -25.13472595 31.15624756 -25.13571167 30.22253418 C-25.13639353 28.30248953 -25.13453882 26.38244259 -25.13037109 24.46240234 C-25.12502292 21.51264296 -25.13031588 18.56303586 -25.13671875 15.61328125 C-25.13605797 13.75260383 -25.13477681 11.8919265 -25.1328125 10.03125 C-25.13483673 9.14272339 -25.13686096 8.25419678 -25.13894653 7.33874512 C-25.11494988 1.11494988 -25.11494988 1.11494988 -24 0 C-20.74404906 -0.38186298 -17.4612489 -0.47029887 -14.1875 -0.625 C-12.81368164 -0.70234375 -12.81368164 -0.70234375 -11.41210938 -0.78125 C-10.52716797 -0.82507813 -9.64222656 -0.86890625 -8.73046875 -0.9140625 C-7.91989014 -0.9548291 -7.10931152 -0.9955957 -6.27416992 -1.03759766 C-4 -1 -4 -1 0 0 Z " fill="#161616" transform="translate(461,185)"/>
<path d="M0 0 C1.40282227 -0.00193359 1.40282227 -0.00193359 2.83398438 -0.00390625 C4.3102832 0.00189453 4.3102832 0.00189453 5.81640625 0.0078125 C6.79673828 0.00394531 7.77707031 0.00007812 8.78710938 -0.00390625 C9.72361328 -0.00261719 10.66011719 -0.00132812 11.625 0 C12.91942017 0.00169189 12.91942017 0.00169189 14.23999023 0.00341797 C16.37890625 0.1328125 16.37890625 0.1328125 18.37890625 1.1328125 C18.37890625 4.4328125 18.37890625 7.7328125 18.37890625 11.1328125 C12.43890625 11.6278125 12.43890625 11.6278125 6.37890625 12.1328125 C6.37890625 13.7828125 6.37890625 15.4328125 6.37890625 17.1328125 C10.00890625 17.1328125 13.63890625 17.1328125 17.37890625 17.1328125 C17.37890625 20.4328125 17.37890625 23.7328125 17.37890625 27.1328125 C13.41890625 27.1328125 9.45890625 27.1328125 5.37890625 27.1328125 C5.04890625 29.4428125 4.71890625 31.7528125 4.37890625 34.1328125 C4.97058594 34.04902344 5.56226563 33.96523437 6.171875 33.87890625 C10.47830082 33.32391826 14.13443269 32.90054598 18.37890625 34.1328125 C18.40579841 35.61188142 18.42525246 37.09108733 18.44140625 38.5703125 C18.45300781 39.39402344 18.46460938 40.21773437 18.4765625 41.06640625 C18.37890625 43.1328125 18.37890625 43.1328125 17.37890625 44.1328125 C15.84109034 44.23183357 14.29881181 44.26360817 12.7578125 44.265625 C11.35499023 44.26755859 11.35499023 44.26755859 9.92382812 44.26953125 C8.93962891 44.26566406 7.95542969 44.26179688 6.94140625 44.2578125 C5.4709082 44.26361328 5.4709082 44.26361328 3.97070312 44.26953125 C3.03419922 44.26824219 2.09769531 44.26695312 1.1328125 44.265625 C-0.16160767 44.26393311 -0.16160767 44.26393311 -1.48217773 44.26220703 C-3.62109375 44.1328125 -3.62109375 44.1328125 -5.62109375 43.1328125 C-5.64573949 37.16968084 -5.66392775 31.20657855 -5.67602539 25.2434082 C-5.68106653 23.21312952 -5.68789932 21.18285448 -5.6965332 19.15258789 C-5.70860842 16.24103903 -5.71432409 13.329538 -5.71875 10.41796875 C-5.72391129 9.5044313 -5.72907257 8.59089386 -5.73439026 7.64967346 C-5.73458543 5.47705823 -5.6832118 3.30453954 -5.62109375 1.1328125 C-4.00423301 -0.48404824 -2.23033225 0.00291901 0 0 Z " fill="#171717" transform="translate(597.62109375,185.8671875)"/>
<path d="M0 0 C0.91007813 0.10183594 1.82015625 0.20367187 2.7578125 0.30859375 C3.45648437 0.39238281 4.15515625 0.47617188 4.875 0.5625 C4.35128072 4.43802268 3.58157305 5.86906565 0.875 8.5625 C0.01755649 9.97365312 -0.79292532 11.41406971 -1.5625 12.875 C-2.98024169 15.55607588 -4.33549385 17.82590912 -6.23828125 20.20703125 C-8.81972718 24.79805 -8.79365579 28.7536552 -8.875 33.9375 C-8.91947266 35.32775391 -8.91947266 35.32775391 -8.96484375 36.74609375 C-9.03510178 39.01777004 -9.08236656 41.29013741 -9.125 43.5625 C-13.085 43.5625 -17.045 43.5625 -21.125 43.5625 C-21.12886719 41.44521484 -21.12886719 41.44521484 -21.1328125 39.28515625 C-21.07681402 25.23480314 -21.07681402 25.23480314 -28.125 13.5625 C-28.455 12.9025 -28.785 12.2425 -29.125 11.5625 C-29.455 14.2025 -29.785 16.8425 -30.125 19.5625 C-30.455 19.5625 -30.785 19.5625 -31.125 19.5625 C-31.18558594 18.71945312 -31.24617187 17.87640625 -31.30859375 17.0078125 C-31.39238281 15.91210938 -31.47617187 14.81640625 -31.5625 13.6875 C-31.64371094 12.59695312 -31.72492187 11.50640625 -31.80859375 10.3828125 C-31.95501703 7.61521029 -31.95501703 7.61521029 -33.125 5.5625 C-34.115 5.2325 -35.105 4.9025 -36.125 4.5625 C-35.465 3.2425 -34.805 1.9225 -34.125 0.5625 C-32.18872231 0.45442869 -30.25072244 0.3768775 -28.3125 0.3125 C-26.69408203 0.24289063 -26.69408203 0.24289063 -25.04296875 0.171875 C-22.125 0.5625 -22.125 0.5625 -20.23828125 2.453125 C-19.125 4.5625 -19.125 4.5625 -19.125 6.5625 C-18.135 6.8925 -17.145 7.2225 -16.125 7.5625 C-14.4375 9.125 -14.4375 9.125 -13.125 10.5625 C-12.8775 9.840625 -12.63 9.11875 -12.375 8.375 C-9.52789095 1.96900464 -6.94772778 -0.8016609 0 0 Z " fill="#222221" transform="translate(561.125,238.4375)"/>
<path d="M0 0 C-0.33 3.3 -0.66 6.6 -1 10 C-3.97 10 -6.94 10 -10 10 C-9.75636719 11.38638672 -9.75636719 11.38638672 -9.5078125 12.80078125 C-8.7788609 17.91760936 -8.85448844 23.0288415 -8.875 28.1875 C-8.86919922 29.66379883 -8.86919922 29.66379883 -8.86328125 31.16992188 C-8.86457031 32.11802734 -8.86585938 33.06613281 -8.8671875 34.04296875 C-8.86831543 34.89914795 -8.86944336 35.75532715 -8.87060547 36.63745117 C-9 39 -9 39 -10 43 C-13.63 43 -17.26 43 -21 43 C-22.26851884 37.14065106 -22.14741461 31.33728507 -22.125 25.375 C-22.12886719 24.33859375 -22.13273437 23.3021875 -22.13671875 22.234375 C-22.13542969 21.23664063 -22.13414062 20.23890625 -22.1328125 19.2109375 C-22.13112061 17.85427979 -22.13112061 17.85427979 -22.12939453 16.47021484 C-22 14 -22 14 -21 10 C-24.3 10 -27.6 10 -31 10 C-31 6.7 -31 3.4 -31 0 C-20.51069502 -0.97960463 -10.48670989 -0.89571109 0 0 Z " fill="#1B1B1A" transform="translate(362,239)"/>
<path d="M0 0 C-0.37920907 6.21211326 -0.7700946 12.42333886 -1.171875 18.6340332 C-1.30693541 20.74743638 -1.4387887 22.86104703 -1.56738281 24.97485352 C-1.75265509 28.01118109 -1.94940533 31.04657849 -2.1484375 34.08203125 C-2.23138565 35.5024749 -2.23138565 35.5024749 -2.31600952 36.95161438 C-2.37592072 37.83230087 -2.43583191 38.71298737 -2.49755859 39.62036133 C-2.54641205 40.39535477 -2.5952655 41.17034821 -2.64559937 41.96882629 C-3 44 -3 44 -5 47 C-6.98 46.67 -8.96 46.34 -11 46 C-11.125 39.25 -11.125 39.25 -10 37 C-9.77866002 35.18963178 -9.60838518 33.37287901 -9.46484375 31.5546875 C-9.37783203 30.47832031 -9.29082031 29.40195313 -9.20117188 28.29296875 C-9.0706543 26.60107422 -9.0706543 26.60107422 -8.9375 24.875 C-8.84662109 23.73933594 -8.75574219 22.60367188 -8.66210938 21.43359375 C-8.43770774 18.62266799 -8.21716834 15.81149234 -8 13 C-8.99 13 -9.98 13 -11 13 C-12.69052247 19.22897904 -13.56776481 25.22663958 -14.12304688 31.64453125 C-14.65241409 36.86189819 -15.84238486 41.20062193 -18 46 C-20.6875 47.5 -20.6875 47.5 -23 48 C-23 47.34 -23 46.68 -23 46 C-23.66 45.67 -24.32 45.34 -25 45 C-24.69964844 43.72511719 -24.39929688 42.45023438 -24.08984375 41.13671875 C-22.76998765 35.20607247 -21.99274007 29.22132519 -21.23242188 23.19726562 C-20.5457244 18.23862697 -19.56424822 14.39102136 -17 10 C-16.38125 8.824375 -16.38125 8.824375 -15.75 7.625 C-14 6 -14 6 -10.3125 5.75 C-9.219375 5.8325 -8.12625 5.915 -7 6 C-6.67 4.02 -6.34 2.04 -6 0 C-3 -1 -3 -1 0 0 Z " fill="#272727" transform="translate(278,158)"/>
<path d="M0 0 C1.70884005 1.62339805 3.37446717 3.29319053 5 5 C5 5.66 5 6.32 5 7 C6.32 7.66 7.64 8.32 9 9 C9 9.66 9 10.32 9 11 C9.66 11 10.32 11 11 11 C11 11.66 11 12.32 11 13 C11.556875 13.061875 12.11375 13.12375 12.6875 13.1875 C15.99068042 14.3480769 17.71894733 16.40213446 20 19 C20 19.66 20 20.32 20 21 C20.66 21 21.32 21 22 21 C23.48046875 22.5390625 23.48046875 22.5390625 25.1875 24.625 C27.4835869 27.33466777 29.75017804 29.75296716 32.5 32 C35.83735921 34.74006897 38.52103636 37.83464466 41.30859375 41.12109375 C42.83078976 42.81203204 44.34882817 44.21223929 46.125 45.625 C49.25466043 48.21037166 51.45215754 50.84872117 54 54 C55.11375 55.051875 55.11375 55.051875 56.25 56.125 C58.12679856 58.1358556 58.81746217 59.26193251 59 62 C58.34 62.66 57.68 63.32 57 64 C53.43687989 63.90369946 52.13754682 63.12723081 49.5 60.6875 C48.675 59.800625 47.85 58.91375 47 58 C46.175 57.34 45.35 56.68 44.5 56 C39.71090196 52.16872157 35.91277586 47.69533104 32 43 C28.53766823 39.36011275 24.86444532 36.19236787 21 33 C19.125 31.3125 19.125 31.3125 18 30 C18 29.34 18 28.68 18 28 C16.68 27.34 15.36 26.68 14 26 C14 25.34 14 24.68 14 24 C13.34 24 12.68 24 12 24 C12 23.34 12 22.68 12 22 C10.68 21.34 9.36 20.68 8 20 C8 19.34 8 18.68 8 18 C7.34 18 6.68 18 6 18 C4.30859375 16.3203125 4.30859375 16.3203125 2.4375 14.125 C1.81746094 13.40570313 1.19742188 12.68640625 0.55859375 11.9453125 C-1 10 -1 10 -2 8 C-1.34 8 -0.68 8 0 8 C0 7.34 0 6.68 0 6 C0.66 6 1.32 6 2 6 C1.34 4.02 0.68 2.04 0 0 Z " fill="#292928" transform="translate(93,257)"/>
<path d="M0 0 C2.1553432 33.82569234 2.1553432 33.82569234 -3 41 C-6.72063103 44.17347941 -10.05924553 44.44658625 -14.7734375 44.3046875 C-17.9125612 43.8751232 -20.32310247 42.64732156 -23 41 C-23.25 34.375 -23.25 34.375 -21 31 C-20.36191406 31.08378906 -19.72382813 31.16757813 -19.06640625 31.25390625 C-18.24011719 31.35574219 -17.41382813 31.45757812 -16.5625 31.5625 C-15.73878906 31.66691406 -14.91507812 31.77132812 -14.06640625 31.87890625 C-13.38449219 31.91886719 -12.70257813 31.95882812 -12 32 C-10.58236604 30.81391591 -10.58236604 30.81391591 -10.9375 27.421875 C-10.9553945 25.86454679 -10.97643145 24.30725267 -11 22.75 C-11.11536171 6.21866762 -11.11536171 6.21866762 -10 0 C-6.7169902 -1.6415049 -3.57454967 -0.51888624 0 0 Z " fill="#171717" transform="translate(354,185)"/>
<path d="M0 0 C2.04291182 1.26660533 4.04690112 2.59886384 6 4 C10.77630617 5.59210206 16.01613516 5.08709667 21 5 C21 6.32 21 7.64 21 9 C6.30788448 12.00346632 6.30788448 12.00346632 1.0625 8.75 C-0.77734375 7.359375 -0.77734375 7.359375 -2 6 C-2 5.34 -2 4.68 -2 4 C-2.66 4 -3.32 4 -4 4 C-3.855625 5.07378906 -3.71125 6.14757812 -3.5625 7.25390625 C-3.37476571 8.69007356 -3.18727891 10.12627324 -3 11.5625 C-2.90460938 12.26697266 -2.80921875 12.97144531 -2.7109375 13.69726562 C-2.13333583 18.17367855 -1.90510617 22.48661238 -2 27 C1.37546167 24.45647995 1.37546167 24.45647995 4.2121582 21.36791992 C7.00707899 19.22946011 9.93823363 19.74268531 13.29296875 19.92578125 C14.35201164 19.96544258 14.35201164 19.96544258 15.43244934 20.00590515 C17.68500008 20.09360051 19.93592574 20.20276667 22.1875 20.3125 C23.71543676 20.37576626 25.24343221 20.43763208 26.77148438 20.49804688 C30.51519731 20.64912913 34.2575961 20.81947177 38 21 C38 21.66 38 22.32 38 23 C38.99 23.33 39.98 23.66 41 24 C39.90380859 25.52001953 39.90380859 25.52001953 38 27 C35.07666016 27.07763672 35.07666016 27.07763672 31.5390625 26.6796875 C30.26289063 26.55722656 28.98671875 26.43476562 27.671875 26.30859375 C25.64751355 26.09604562 23.62466571 25.8749615 21.60253906 25.64208984 C19.64635001 25.42298521 17.68639013 25.23842134 15.7265625 25.0546875 C14.55689941 24.92562012 13.38723633 24.79655273 12.18212891 24.66357422 C7.93987124 25.11208051 6.68506852 26.79873226 4 30 C3.34 30.66 2.68 31.32 2 32 C-1.83977998 31.93018582 -4.14125373 31.88737115 -6.875 29.0625 C-10.10897801 20.25889319 -9.11091348 10.24278992 -9 1 C-5.89046621 -0.5547669 -3.43733239 -0.28644437 0 0 Z " fill="#333333" transform="translate(252,94)"/>
<path d="M0 0 C0 0.66 0 1.32 0 2 C0.763125 2.226875 1.52625 2.45375 2.3125 2.6875 C5.61209589 4.29893055 6.37903957 5.75807913 8 9 C8.36867188 9.59296875 8.73734375 10.1859375 9.1171875 10.796875 C10.94059655 15.34732944 9.30799934 20.43721162 8 25 C6.54397486 27.60450702 5.25368238 28.97168586 3 31 C2.34 31 1.68 31 1 31 C1 31.66 1 32.32 1 33 C-1.875 32.25 -1.875 32.25 -5 31 C-6.125 29 -6.125 29 -7 27 C-9.29504633 25.5933587 -11.43428919 24.85523694 -14 24 C-14 23.34 -14 22.68 -14 22 C-14.66 22 -15.32 22 -16 22 C-16 21.34 -16 20.68 -16 20 C-16.556875 19.7525 -17.11375 19.505 -17.6875 19.25 C-20.39971127 17.78393985 -22.63587365 15.97010529 -25 14 C-24.43624605 10.05372236 -23.40389944 7.20519925 -21 4 C-18.875 3.375 -18.875 3.375 -17 3 C-16.67 2.01 -16.34 1.02 -16 0 C-10.67099269 -1.29188056 -5.28305817 -1.69057861 0 0 Z M-19 11 C-15.41157029 14.69495081 -11.66828129 18.04758217 -7.6875 21.3125 C-7.13771484 21.76689453 -6.58792969 22.22128906 -6.02148438 22.68945312 C-4.68287784 23.79525852 -3.34170769 24.89795939 -2 26 C0.95968901 24.69479553 1.93562504 24.09545252 3.8125 21.3125 C5.31119388 17.13193286 5.41084085 15.23252256 4 11 C0.73742794 6.95535861 -2.43201096 4.39199726 -7.5 3.125 C-12.522035 4.38050875 -15.43199063 7.36711773 -19 11 Z " fill="#393939" transform="translate(338,37)"/>
<path d="M0 0 C0.33 0 0.66 0 1 0 C1.125 2.375 1.125 2.375 1 5 C0.34 5.66 -0.32 6.32 -1 7 C-1.43214516 12.40181446 -0.44486429 16.85267095 1 22 C1.66 22 2.32 22 3 22 C3.33 23.65 3.66 25.3 4 27 C4.144375 26.4225 4.28875 25.845 4.4375 25.25 C4.95833333 23.16666667 5.47916667 21.08333333 6 19 C6.4125 20.0725 6.825 21.145 7.25 22.25 C8.3110599 24.75249976 9.0396492 26.0396492 11 28 C13 30 13 30 14.3125 33.6875 C14.869375 34.780625 15.42625 35.87375 16 37 C19.58863524 38.0615942 19.58863524 38.0615942 23 38 C23 37.34 23 36.68 23 36 C24.485 36.495 24.485 36.495 26 37 C27.05082025 40.76543923 27.3391456 42.3759721 25.4375 45.875 C23 48 23 48 20.25 48.75 C15.43146678 47.6380308 12.2573057 44.65413483 9 41 C9 40.34 9 39.68 9 39 C8.34 39 7.68 39 7 39 C-5.88058065 14.08295443 -5.88058065 14.08295443 -4.25 7.3125 C-3.8375 6.219375 -3.425 5.12625 -3 4 C-2.34 4 -1.68 4 -1 4 C-0.67 2.68 -0.34 1.36 0 0 Z " fill="#A1DEA1" transform="translate(155,194)"/>
<path d="M0 0 C3 1 3 1 4.1875 3 C5.26114888 6.96424203 5.70917391 10.92796917 5 15 C3.73046875 16.7734375 3.73046875 16.7734375 2 18 C0.68 18 -0.64 18 -2 18 C-0.7934375 19.5159375 -0.7934375 19.5159375 0.4375 21.0625 C3.10547019 24.75545309 3.72410871 27.49377556 4 32 C3.34 32 2.68 32 2 32 C2 32.66 2 33.32 2 34 C-0.79870027 35.39935013 -2.90498792 35.25265405 -6 35 C-7.875 33.875 -7.875 33.875 -9 32 C-9.89690653 26.4904313 -7.64238422 22.6477651 -5 18 C-5.515625 17.484375 -6.03125 16.96875 -6.5625 16.4375 C-8 14 -8 14 -8.125 10.6875 C-6.62280265 5.76363092 -3.83440925 3.29378758 0 0 Z M-3 28 C-3.33 28.66 -3.66 29.32 -4 30 C-3.34 30 -2.68 30 -2 30 C-2.33 29.34 -2.66 28.68 -3 28 Z " fill="#292928" transform="translate(178,145)"/>
<path d="M0 0 C2.0625 0.4375 2.0625 0.4375 4 1 C4 1.66 4 2.32 4 3 C5.32 3.33 6.64 3.66 8 4 C7.01 4 6.02 4 5 4 C3.30947753 10.22897904 2.43223519 16.22663958 1.87695312 22.64453125 C1.34758591 27.86189819 0.15761514 32.20062193 -2 37 C-4.6875 38.5 -4.6875 38.5 -7 39 C-7 38.34 -7 37.68 -7 37 C-7.66 36.67 -8.32 36.34 -9 36 C-8.69964844 34.72511719 -8.39929688 33.45023438 -8.08984375 32.13671875 C-6.76998765 26.20607247 -5.99274007 20.22132519 -5.23242188 14.19726562 C-3.79135907 3.79135907 -3.79135907 3.79135907 0 0 Z " fill="#232323" transform="translate(262,167)"/>
<path d="M0 0 C9.89236081 -0.69773705 16.94709928 0.21666956 24.84375 6.45703125 C28.15672602 9.53452614 30.43573128 12.76727289 32 17 C31.6875 19.375 31.6875 19.375 31 21 C31 20.01 31 19.02 31 18 C30.34 18 29.68 18 29 18 C29 17.01 29 16.02 29 15 C28.34 15 27.68 15 27 15 C26.34 15.99 25.68 16.98 25 18 C24.67 16.35 24.34 14.7 24 13 C23.01 12.67 22.02 12.34 21 12 C20.443125 11.360625 19.88625 10.72125 19.3125 10.0625 C15.37292563 6.54882556 11.35640521 5.86964567 6.24609375 6.15234375 C0.04015411 7.03890656 -3.62365353 8.50537389 -8 13 C-8.33 12.01 -8.66 11.02 -9 10 C-9.66 10 -10.32 10 -11 10 C-10.9375 8.25 -10.9375 8.25 -10 6 C-6.7838181 3.55272534 -4.07605096 2 0 2 C0 1.34 0 0.68 0 0 Z " fill="#3A3A39" transform="translate(323,28)"/>
<path d="M0 0 C0.99 0.33 1.98 0.66 3 1 C3 1.99 3 2.98 3 4 C3.66 4 4.32 4 5 4 C7.60483846 8.74999955 7.16645081 12.88747093 6 18 C4.43857876 22.32288674 2.5490868 26.17636979 0 30 C0 30.66 0 31.32 0 32 C0.598125 32.2475 1.19625 32.495 1.8125 32.75 C4.41320743 34.23611853 5.54416577 35.37949839 7 38 C7.1875 41.25 7.1875 41.25 7 44 C6.01 43.67 5.02 43.34 4 43 C4 43.66 4 44.32 4 45 C3.34 45 2.68 45 2 45 C1.9175 43.88625 1.835 42.7725 1.75 41.625 C1.43354372 37.99092374 1.43354372 37.99092374 -0.8125 36.75 C-1.534375 36.5025 -2.25625 36.255 -3 36 C-5.25 34.6875 -5.25 34.6875 -7 33 C-7.4282645 29.89895225 -7.35829699 28.49581567 -5.50390625 25.9296875 C-4.86324219 25.25164062 -4.22257812 24.57359375 -3.5625 23.875 C0.56535163 18.91323895 1.3485516 14.37195889 1 8 C0.67 7.34 0.34 6.68 0 6 C-0.039992 4.00039988 -0.04346799 1.99952758 0 0 Z " fill="#313130" transform="translate(349,42)"/>
<path d="M0 0 C1.9375 0.8125 1.9375 0.8125 4 2 C4.33 2.99 4.66 3.98 5 5 C6.76457071 9.08976023 9.41885008 12.58495218 12 16.1875 C12.67675781 17.14946289 12.67675781 17.14946289 13.3671875 18.13085938 C15.6948819 21.59512102 15.6948819 21.59512102 19 24 C19 25.98 19 27.96 19 30 C16.36 30 13.72 30 11 30 C11 29.34 11 28.68 11 28 C9.68 27.34 8.36 26.68 7 26 C8.32 25.67 9.64 25.34 11 25 C11 24.34 11 23.68 11 23 C10.34 23 9.68 23 9 23 C8.34 21.02 7.68 19.04 7 17 C6.34 17 5.68 17 5 17 C1.59310661 12.81833023 -0.74632123 8.45409352 -1 3 C-0.67 2.01 -0.34 1.02 0 0 Z " fill="#353534" transform="translate(261,72)"/>
<path d="M0 0 C0.33 0.66 0.66 1.32 1 2 C2.32 1.67 3.64 1.34 5 1 C5.05797565 4.93743833 5.09358789 8.87476719 5.125 12.8125 C5.14175781 13.93205078 5.15851563 15.05160156 5.17578125 16.20507812 C5.18222656 17.27822266 5.18867188 18.35136719 5.1953125 19.45703125 C5.20578613 20.44678955 5.21625977 21.43654785 5.22705078 22.45629883 C5 25 5 25 3 28 C1.02 27.67 -0.96 27.34 -3 27 C-3.125 20.25 -3.125 20.25 -2 18 C-1.7935257 15.71157647 -1.63352892 13.41883607 -1.5 11.125 C-1.05404006 3.49589952 -1.05404006 3.49589952 0 0 Z " fill="#181818" transform="translate(270,177)"/>
<path d="M0 0 C-0.50459614 4.28906722 -1.05649073 8.11298145 -3 12 C-6.42932071 13.71466036 -10.21716065 13.05404056 -14 13 C-14.66 9.7 -15.32 6.4 -16 3 C-11.14640505 -1.01676824 -5.95027665 -0.28136159 0 0 Z M-10 7 C-9 9 -9 9 -9 9 Z " fill="#2E2E2C" transform="translate(237,117)"/>
<path d="M0 0 C0 1.65 0 3.3 0 5 C0.66 5 1.32 5 2 5 C2 5.66 2 6.32 2 7 C1 8 0 9 -1 10 C-1.6496875 11.3303125 -1.6496875 11.3303125 -2.3125 12.6875 C-4 15 -4 15 -6.9375 15.625 C-10 15 -10 15 -12.4375 12.875 C-14 10 -14 10 -14 6.875 C-12.83176738 3.51633121 -12.0951038 2.67302908 -9 1 C-3.60550459 -1.20183486 -3.60550459 -1.20183486 0 0 Z M-6 6 C-5 8 -5 8 -5 8 Z " fill="#262626" transform="translate(219,127)"/>
<path d="M0 0 C1.32 0 2.64 0 4 0 C5.921875 2.1171875 5.921875 2.1171875 7.75 4.875 C8.67039062 6.23238281 8.67039062 6.23238281 9.609375 7.6171875 C11 10 11 10 11 12 C13.97 12.33 16.94 12.66 20 13 C20.33 12.01 20.66 11.02 21 10 C21.33 10.99 21.66 11.98 22 13 C24.01508358 13.73323796 24.01508358 13.73323796 26 14 C25.01 14.33 24.02 14.66 23 15 C23 15.66 23 16.32 23 17 C19.29486945 19.47008703 16.29793147 19.65991861 12 19 C8.34695604 16.91254631 6.38398402 14.18275152 4 10.8125 C1.72109043 7.59200939 1.72109043 7.59200939 -1.875 6 C-2.57625 6 -3.2775 6 -4 6 C-3.38125 5.71125 -2.7625 5.4225 -2.125 5.125 C0.13325765 4.06279958 0.13325765 4.06279958 2 2 C1.34 1.34 0.68 0.68 0 0 Z " fill="#3C3C3B" transform="translate(290,116)"/>
<path d="M0 0 C0.33 0.66 0.66 1.32 1 2 C2.32 2 3.64 2 5 2 C4.49621607 6.40810938 3.27760318 8.97452014 0 12 C-3.58069219 13.13964536 -6.78505192 13.28037263 -10.4375 12.4375 C-12 11 -12 11 -13 8.125 C-13 5 -13 5 -11.625 2.6875 C-7.90678713 0.2972203 -4.34680637 0.18576096 0 0 Z " fill="#3A3A38" transform="translate(223,104)"/>
<path d="M0 0 C2.31 0 4.62 0 7 0 C7.02712066 1.43739513 7.04645067 2.87493863 7.0625 4.3125 C7.07410156 5.11300781 7.08570313 5.91351563 7.09765625 6.73828125 C7 9 7 9 6 12 C5.34 12 4.68 12 4 12 C3.67 12.99 3.34 13.98 3 15 C-2.625 15.25 -2.625 15.25 -6 13 C-6.91399027 9.4202048 -7.17841928 7.53525784 -6 4 C-3 2 -3 2 0 2 C0 1.34 0 0.68 0 0 Z M-2 8 C-1.34 8.66 -0.68 9.32 0 10 C0 9.34 0 8.68 0 8 C-0.66 8 -1.32 8 -2 8 Z " fill="#2F2F2F" transform="translate(199,113)"/>
<path d="M0 0 C0.40025391 0.87205078 0.40025391 0.87205078 0.80859375 1.76171875 C2.0238387 4.04478549 3.41508326 5.82507587 5.0625 7.8125 C7.99608637 11.6168833 8.80153669 14.23688053 9 19 C8.34 19 7.68 19 7 19 C7 19.66 7 20.32 7 21 C4.20129973 22.39935013 2.09501208 22.25265405 -1 22 C-2.875 20.875 -2.875 20.875 -4 19 C-4.80839807 14.03412615 -3.20520126 11.03983735 -0.6796875 6.9296875 C0.25834685 4.93846612 0.25834685 4.93846612 -0.8828125 2.7578125 C-1.25148437 2.17773438 -1.62015625 1.59765625 -2 1 C-1.34 0.67 -0.68 0.34 0 0 Z M2 15 C1.67 15.66 1.34 16.32 1 17 C1.66 17 2.32 17 3 17 C2.67 16.34 2.34 15.68 2 15 Z " fill="#3C3C3C" transform="translate(173,158)"/>
<path d="M0 0 C0.721875 0.103125 1.44375 0.20625 2.1875 0.3125 C3.51021361 4.28064084 4.30901116 8.11277045 4.1875 12.3125 C2.41493908 14.93851617 0.97915417 15.87836707 -1.75 17.375 C-3.8125 17.3125 -3.8125 17.3125 -6.625 15.3125 C-8.8125 12.3125 -8.8125 12.3125 -8.9375 8.8125 C-7.38516273 3.98300626 -5.31254542 0.59028282 0 0 Z M-3.8125 8.3125 C-2.8125 11.3125 -2.8125 11.3125 -2.8125 11.3125 Z " fill="#303030" transform="translate(203.8125,141.6875)"/>
<path d="M0 0 C0.33 0 0.66 0 1 0 C1.12117187 0.97839844 1.24234375 1.95679688 1.3671875 2.96484375 C2.43920406 11.59655571 2.43920406 11.59655571 4.125 20.125 C4.83734936 23.27969004 5.20646485 25.79979477 5 29 C0.25 30.125 0.25 30.125 -2 29 C-2.64750694 26.59115537 -3.17062495 24.25824325 -3.625 21.8125 C-3.7590625 21.15185547 -3.893125 20.49121094 -4.03125 19.81054688 C-4.80318667 15.82089458 -5.13887857 12.05904171 -5 8 C-4.34 8.66 -3.68 9.32 -3 10 C-0.70424397 7.70424397 -0.67660401 6.99157475 -0.375 3.875 C-0.189375 1.956875 -0.189375 1.956875 0 0 Z " fill="#353533" transform="translate(135,175)"/>
<path d="M0 0 C0.05429959 1.74965358 0.09292823 3.49979787 0.125 5.25 C0.14820313 6.22453125 0.17140625 7.1990625 0.1953125 8.203125 C-0.00137219 11.0196498 -0.55431084 12.60949036 -2 15 C-9.40640809 15.4856661 -9.40640809 15.4856661 -12.0625 13.3125 C-13.61124941 9.49225145 -12.2564779 6.7694337 -11 3 C-3.93258427 -1.96629213 -3.93258427 -1.96629213 0 0 Z M-8 8 C-8 8.66 -8 9.32 -8 10 C-7.01 10 -6.02 10 -5 10 C-4.67 8.68 -4.34 7.36 -4 6 C-5.46225016 5.90754997 -5.46225016 5.90754997 -8 8 Z " fill="#363636" transform="translate(191,128)"/>
<path d="M0 0 C0.66 0 1.32 0 2 0 C2 0.66 2 1.32 2 2 C2.66 2 3.32 2 4 2 C8.03353164 8.11141157 8.03353164 8.11141157 7.875 12.3125 C7 15 7 15 5 17 C2.0625 17.375 2.0625 17.375 -1 17 C-2.9375 15.5 -2.9375 15.5 -4 13 C-3.83639329 7.84638879 -3.25349198 4.16446973 0 0 Z M1 9 C1.33 9.99 1.66 10.98 2 12 C2 11.01 2 10.02 2 9 C1.67 9 1.34 9 1 9 Z " fill="#3B3B3B" transform="translate(198,159)"/>
<path d="M0 0 C1.20970459 0.00523682 2.41940918 0.01047363 3.66577148 0.01586914 C4.97094727 0.0190918 6.27612305 0.02231445 7.62084961 0.02563477 C9.00952213 0.03399138 10.39819401 0.04245634 11.78686523 0.05102539 C13.17944179 0.05603873 14.57202005 0.06060193 15.96459961 0.06469727 C19.38456394 0.07653105 22.80444367 0.09301659 26.22436523 0.11352539 C26.22436523 0.77352539 26.22436523 1.43352539 26.22436523 2.11352539 C27.21436523 2.44352539 28.20436523 2.77352539 29.22436523 3.11352539 C28.09814453 4.62255859 28.09814453 4.62255859 26.22436523 6.11352539 C23.49707031 6.27050781 23.49707031 6.27050781 20.24389648 5.96899414 C18.49882812 5.81914063 18.49882812 5.81914063 16.71850586 5.66625977 C15.50356445 5.54573242 14.28862305 5.42520508 13.03686523 5.30102539 C11.81032227 5.19209961 10.5837793 5.08317383 9.32006836 4.97094727 C6.28656128 4.69946609 3.25520592 4.4130981 0.22436523 4.11352539 C0.22436523 3.45352539 0.22436523 2.79352539 0.22436523 2.11352539 C-1.09563477 1.78352539 -2.41563477 1.45352539 -3.77563477 1.11352539 C-2.77563477 0.11352539 -2.77563477 0.11352539 0 0 Z " fill="#40403F" transform="translate(263.775634765625,114.886474609375)"/>
<path d="M0 0 C7.42857143 -0.14285714 7.42857143 -0.14285714 11 1 C11 1.66 11 2.32 11 3 C11.763125 3.226875 12.52625 3.45375 13.3125 3.6875 C16.71251182 5.34797089 17.55914733 6.51161986 19 10 C19.23231811 12.72216226 19.13940871 15.25829535 19 18 C18.01 17.34 17.02 16.68 16 16 C16 14.68 16 13.36 16 12 C15.443125 11.7525 14.88625 11.505 14.3125 11.25 C12 10 12 10 10 7.9375 C5.35800771 4.93954665 0.42177365 5.17294334 -5 5 C-5 4.34 -5 3.68 -5 3 C-3.35 2.67 -1.7 2.34 0 2 C0 1.34 0 0.68 0 0 Z " fill="#2E2E2E" transform="translate(327,36)"/>
<path d="M0 0 C0 2 0 2 -2.0625 4.25 C-4.77057261 6.86495836 -7.64248466 9.27500367 -10.546875 11.66796875 C-12.12779183 12.9579691 -12.12779183 12.9579691 -13 15 C-16.0625 15.625 -16.0625 15.625 -19 16 C-19.33 15.34 -19.66 14.68 -20 14 C-19.67 13.01 -19.34 12.02 -19 11 C-18.34 11 -17.68 11 -17 11 C-17 10.34 -17 9.68 -17 9 C-15.125 6.875 -15.125 6.875 -13 5 C-12.34 5 -11.68 5 -11 5 C-10.67 4.01 -10.34 3.02 -10 2 C-3.73913043 -1.24637681 -3.73913043 -1.24637681 0 0 Z " fill="#3B3B3A" transform="translate(331,114)"/>
<path d="M0 0 C4.71075402 0.63658838 4.71075402 0.63658838 6.21875 2.53125 C9.02420086 4.8445165 11.63913998 4.28516129 15.1875 4.1875 C16.45980469 4.16042969 17.73210937 4.13335937 19.04296875 4.10546875 C20.01878906 4.07066406 20.99460937 4.03585938 22 4 C22 5.32 22 6.64 22 8 C7.29871439 11.00534094 7.29871439 11.00534094 2.0625 7.625 C0.22265625 6.1640625 0.22265625 6.1640625 -1 5 C-0.67 3.35 -0.34 1.7 0 0 Z " fill="#2E2E2D" transform="translate(251,95)"/>
<path d="M0 0 C0.33 1.65 0.66 3.3 1 5 C2.32 5.33 3.64 5.66 5 6 C1.37 6.66 -2.26 7.32 -6 8 C-5.34 7.67 -4.68 7.34 -4 7 C-4.33 6.01 -4.66 5.02 -5 4 C-9.06962402 5.23035145 -12.38325151 6.78976481 -16 9 C-16.66 9 -17.32 9 -18 9 C-18.33 9.99 -18.66 10.98 -19 12 C-22.0625 13.1875 -22.0625 13.1875 -25 14 C-25 12 -25 12 -23.609375 10.4921875 C-22.68898437 9.69167969 -22.68898437 9.69167969 -21.75 8.875 C-21.14671875 8.33617187 -20.5434375 7.79734375 -19.921875 7.2421875 C-18 6 -18 6 -14 6 C-14 5.34 -14 4.68 -14 4 C-12.42466914 3.13116294 -10.83935491 2.28040932 -9.25 1.4375 C-7.92742187 0.72400391 -7.92742187 0.72400391 -6.578125 -0.00390625 C-3.79298812 -1.07998186 -2.73019786 -1.06528748 0 0 Z " fill="#ABDEA9" transform="translate(223,177)"/>
<path d="M0 0 C1.65 0 3.3 0 5 0 C2 2 2 2 0 2 C0 2.66 0 3.32 0 4 C1.65 4 3.3 4 5 4 C4.21625 4.763125 3.4325 5.52625 2.625 6.3125 C-0.07257717 8.90891805 -0.07257717 8.90891805 -2 12 C-1.67 12.66 -1.34 13.32 -1 14 C-2.32 14.99 -3.64 15.98 -5 17 C-6.32 16.01 -7.64 15.02 -9 14 C-8.43624605 10.05372236 -7.40389944 7.20519925 -5 4 C-2.875 3.375 -2.875 3.375 -1 3 C-0.67 2.01 -0.34 1.02 0 0 Z " fill="#444443" transform="translate(322,37)"/>
<path d="M0 0 C0.33 0.66 0.66 1.32 1 2 C1.66 2 2.32 2 3 2 C3 3.65 3 5.3 3 7 C2.01 7.495 2.01 7.495 1 8 C0.67 8.99 0.34 9.98 0 11 C-4.67816092 10.36781609 -4.67816092 10.36781609 -6.3125 8.5 C-9.10866253 6.01452219 -12.34281293 6.29976943 -16 6 C-15.01 4.68 -14.02 3.36 -13 2 C-4.42857143 3 -4.42857143 3 -1 4 C-0.67 2.68 -0.34 1.36 0 0 Z " fill="#212121" transform="translate(311,36)"/>
<path d="M0 0 C0.33 1.32 0.66 2.64 1 4 C0.34 4 -0.32 4 -1 4 C-1 4.66 -1 5.32 -1 6 C-3.95664519 7.4783226 -6.74229737 7.06032783 -10 7 C-10.12375 7.639375 -10.2475 8.27875 -10.375 8.9375 C-10.58125 9.618125 -10.7875 10.29875 -11 11 C-11.99 11.495 -11.99 11.495 -13 12 C-14.67016516 12.99414593 -16.33720673 13.9935725 -18 15 C-18.33 14.34 -18.66 13.68 -19 13 C-18 10 -18 10 -16.1875 9.0625 C-15.465625 8.711875 -14.74375 8.36125 -14 8 C-13.360625 7.360625 -12.72125 6.72125 -12.0625 6.0625 C-8.4582419 2.4582419 -5.03731585 0.71961655 0 0 Z " fill="#98E097" transform="translate(218,180)"/>
<path d="M0 0 C0.33 0 0.66 0 1 0 C1.33919096 3.66614909 1.67028081 7.3329879 2 11 C2.09539062 12.02996094 2.19078125 13.05992187 2.2890625 14.12109375 C2.79321351 19.77478726 3.109151 25.32414798 3 31 C1.35 31.33 -0.3 31.66 -2 32 C-3.90608098 28.78817851 -4.22266247 26.46117397 -4.125 22.75 C-4.09792969 21.41195312 -4.09792969 21.41195312 -4.0703125 20.046875 C-4.04710938 19.37140625 -4.02390625 18.6959375 -4 18 C-3.67 18 -3.34 18 -3 18 C-2.67 19.98 -2.34 21.96 -2 24 C-1.34 24 -0.68 24 0 24 C0 16.08 0 8.16 0 0 Z " fill="#373735" transform="translate(123,173)"/>
<path d="M0 0 C0.99 0.33 1.98 0.66 3 1 C3 1.99 3 2.98 3 4 C3.66 4 4.32 4 5 4 C7.58509897 8.71400401 6.99087872 12.90548213 6 18 C5.67 18.66 5.34 19.32 5 20 C4.34 20 3.68 20 3 20 C2.67 20.66 2.34 21.32 2 22 C0.26375273 18.52750546 0.98904275 14.56977675 1.0625 10.75 C1.19655806 8.03746987 1.19655806 8.03746987 0 6 C-0.039992 4.00039988 -0.04346799 1.99952758 0 0 Z " fill="#1D1D1C" transform="translate(349,42)"/>
<path d="M0 0 C1.70884005 1.62339805 3.37446717 3.29319053 5 5 C5 5.66 5 6.32 5 7 C6.32 7.66 7.64 8.32 9 9 C8.649375 9.928125 8.29875 10.85625 7.9375 11.8125 C6.67617372 14.9802953 6.67617372 14.9802953 8 18 C6 18 6 18 4.30859375 16.3203125 C3.69113281 15.59585937 3.07367188 14.87140625 2.4375 14.125 C1.81746094 13.40570313 1.19742188 12.68640625 0.55859375 11.9453125 C-1 10 -1 10 -2 8 C-1.34 8 -0.68 8 0 8 C0 7.34 0 6.68 0 6 C0.66 6 1.32 6 2 6 C1.34 4.02 0.68 2.04 0 0 Z " fill="#3B3B3A" transform="translate(93,257)"/>
<path d="M0 0 C-0.36923077 6.4 -0.36923077 6.4 -3.5625 9.4375 C-4.7690625 10.2109375 -4.7690625 10.2109375 -6 11 C-6 10.01 -6 9.02 -6 8 C-5.34 8 -4.68 8 -4 8 C-4 6.35 -4 4.7 -4 3 C-5.94999129 3.19471111 -5.94999129 3.19471111 -8 4 C-9.14209817 5.78228936 -9.14209817 5.78228936 -10 8 C-10.98879205 9.67334039 -11.98648336 11.34151823 -13 13 C-13.99 12.67 -14.98 12.34 -16 12 C-8.69403945 -0.80874786 -8.69403945 -0.80874786 0 0 Z " fill="#B1DDAF" transform="translate(224,196)"/>
<path d="M0 0 C0.66 0 1.32 0 2 0 C2.28875 0.78375 2.5775 1.5675 2.875 2.375 C3.84912254 5.09671632 3.84912254 5.09671632 6 7 C4.68 8.65 3.36 10.3 2 12 C1.67 10.35 1.34 8.7 1 7 C0.34 7 -0.32 7 -1 7 C-1.12375 7.515625 -1.2475 8.03125 -1.375 8.5625 C-2.18641628 11.72702351 -3.0945913 14.86124985 -4 18 C-4.66 18 -5.32 18 -6 18 C-6.33 18.66 -6.66 19.32 -7 20 C-6.34 16.37 -5.68 12.74 -5 9 C-4.34 9 -3.68 9 -3 9 C-2.01 6.03 -1.02 3.06 0 0 Z " fill="#AEE1AB" transform="translate(205,211)"/>
<path d="M0 0 C0.598125 0.20625 1.19625 0.4125 1.8125 0.625 C0.4925 0.955 -0.8275 1.285 -2.1875 1.625 C-2.1875 2.945 -2.1875 4.265 -2.1875 5.625 C3.2575 5.13 3.2575 5.13 8.8125 4.625 C8.8125 3.965 8.8125 3.305 8.8125 2.625 C9.8025 2.295 10.7925 1.965 11.8125 1.625 C12.1425 0.965 12.4725 0.305 12.8125 -0.375 C13.4725 -0.375 14.1325 -0.375 14.8125 -0.375 C13.32404947 4.0903516 9.88118302 6.57019228 5.8125 8.625 C1.31568634 9.14962826 -0.40008732 9.14994179 -4.1875 6.625 C-4.875 4 -4.875 4 -5.1875 1.625 C-2.1875 -0.375 -2.1875 -0.375 0 0 Z " fill="#B6D8B3" transform="translate(215.1875,229.375)"/>
<path d="M0 0 C0.33 0 0.66 0 1 0 C1.125 2.375 1.125 2.375 1 5 C0.34 5.66 -0.32 6.32 -1 7 C-1.43214516 12.40181446 -0.44486429 16.85267095 1 22 C1.66 22 2.32 22 3 22 C3 24.64 3 27.28 3 30 C0.45729552 27.45729552 -0.28819571 25.04633788 -1.5625 21.6875 C-1.99691406 20.55699219 -2.43132812 19.42648438 -2.87890625 18.26171875 C-4.83231371 12.57846011 -5.24459318 9.6775004 -3 4 C-2.34 4 -1.68 4 -1 4 C-0.67 2.68 -0.34 1.36 0 0 Z " fill="#B0DCAD" transform="translate(155,194)"/>
<path d="M0 0 C2.10388569 -0.05402274 4.20816714 -0.09280256 6.3125 -0.125 C8.07013672 -0.15980469 8.07013672 -0.15980469 9.86328125 -0.1953125 C13 0 13 0 16 2 C13.55431378 4.92746298 13.55431378 4.92746298 11.09887695 5.2487793 C10.40238037 5.19117432 9.70588379 5.13356934 8.98828125 5.07421875 C8.23095703 5.01943359 7.47363281 4.96464844 6.69335938 4.90820312 C5.90767578 4.83537109 5.12199219 4.76253906 4.3125 4.6875 C3.51521484 4.62626953 2.71792969 4.56503906 1.89648438 4.50195312 C-0.07016953 4.34886031 -2.03528989 4.17629291 -4 4 C-3.34 3.525625 -2.68 3.05125 -2 2.5625 C-1.34 2.046875 -0.68 1.53125 0 1 C0 0.67 0 0.34 0 0 Z " fill="#1B1B1A" transform="translate(277,116)"/>
<path d="M0 0 C0.33 0 0.66 0 1 0 C1.79725902 7.36040917 2.12886183 14.59760355 2 22 C1.34 22 0.68 22 0 22 C-2.65923219 14.47980575 -3.58974568 8.67449024 -1 1 C-0.67 0.67 -0.34 0.34 0 0 Z " fill="#98E095" transform="translate(200,232)"/>
<path d="M0 0 C2 3 2 3 1.71484375 4.97265625 C-0.40320369 10.66690438 -0.40320369 10.66690438 -3.6875 12.5 C-4.450625 12.665 -5.21375 12.83 -6 13 C-6 12.34 -6 11.68 -6 11 C-6.66 10.67 -7.32 10.34 -8 10 C-7.75 7.625 -7.75 7.625 -7 5 C-5.125 3.875 -5.125 3.875 -3 3 C-1.29078411 1.4587688 -1.29078411 1.4587688 0 0 Z " fill="#323232" transform="translate(261,193)"/>
<path d="M0 0 C2.8743384 2.8743384 2.8074996 5.86452878 3.4375 9.78515625 C3.7159375 10.88150391 3.7159375 10.88150391 4 12 C4.66 12.33 5.32 12.66 6 13 C7.11421833 16.64653273 6.94296589 19.33291043 6 23 C4 21 4 21 3.875 18.375 C3.91625 17.59125 3.9575 16.8075 4 16 C3.34 16 2.68 16 2 16 C-0.21975392 10.72808443 -1.47558944 6.82597058 -1 1 C-0.67 0.67 -0.34 0.34 0 0 Z " fill="#95E293" transform="translate(154,200)"/>
<path d="M0 0 C-0.33 2.64 -0.66 5.28 -1 8 C0.65 8.33 2.3 8.66 4 9 C3.67 9.66 3.34 10.32 3 11 C0.36 10.67 -2.28 10.34 -5 10 C-5.66 7.69 -6.32 5.38 -7 3 C-2.25 0 -2.25 0 0 0 Z " fill="#2B2B29" transform="translate(217,106)"/>
<path d="M0 0 C0.66 0.33 1.32 0.66 2 1 C2.484375 3.14453125 2.484375 3.14453125 2.75 5.8125 C2.84796875 6.68519531 2.9459375 7.55789062 3.046875 8.45703125 C2.99616561 11.20801558 2.41135409 12.67126574 1 15 C-1.97 14.505 -1.97 14.505 -5 14 C-5 10.7 -5 7.4 -5 4 C-3.35 5.65 -1.7 7.3 0 9 C0 6.03 0 3.06 0 0 Z " fill="#B3E2B5" transform="translate(194,210)"/>
<path d="M0 0 C1.32 0 2.64 0 4 0 C6.96743313 3.62686272 8 5.2453678 8 10 C7.34 10 6.68 10 6 10 C5.67 10.66 5.34 11.32 5 12 C4.443125 11.195625 3.88625 10.39125 3.3125 9.5625 C0.78135513 6.75771784 -0.32579134 6.30618405 -4 6 C-3.38125 5.71125 -2.7625 5.4225 -2.125 5.125 C0.13325765 4.06279958 0.13325765 4.06279958 2 2 C1.34 1.34 0.68 0.68 0 0 Z " fill="#515150" transform="translate(290,116)"/>
<path d="M0 0 C0.90492188 0.02320313 1.80984375 0.04640625 2.7421875 0.0703125 C4.10730469 0.09738281 4.10730469 0.09738281 5.5 0.125 C6.19867188 0.14820313 6.89734375 0.17140625 7.6171875 0.1953125 C7.6171875 0.5253125 7.6171875 0.8553125 7.6171875 1.1953125 C6.1940625 1.5665625 6.1940625 1.5665625 4.7421875 1.9453125 C1.65312898 2.90945235 1.65312898 2.90945235 0.1796875 4.8203125 C-0.67971302 8.44889245 0.00590753 11.5276327 0.6171875 15.1953125 C-0.3728125 15.6903125 -0.3728125 15.6903125 -1.3828125 16.1953125 C-3.15243139 11.47632878 -4.04902759 7.20208612 -4.3828125 2.1953125 C-2.3828125 0.1953125 -2.3828125 0.1953125 0 0 Z " fill="#AEE1AD" transform="translate(159.3828125,197.8046875)"/>
<path d="M0 0 C0.99 0.33 1.98 0.66 3 1 C4.05082025 4.76543923 4.3391456 6.3759721 2.4375 9.875 C0 12 0 12 -3.125 12.4375 C-6 12 -6 12 -8 10 C-5.36 10 -2.72 10 0 10 C0.33 7.69 0.66 5.38 1 3 C-0.423125 3.309375 -0.423125 3.309375 -1.875 3.625 C-2.90625 3.74875 -3.9375 3.8725 -5 4 C-5.66 3.34 -6.32 2.68 -7 2 C-3.98968256 1.06576355 -3.13349732 0.95550089 0 2 C0 1.34 0 0.68 0 0 Z " fill="#BCD8B8" transform="translate(178,230)"/>
<path d="M0 0 C1.60080151 4.00200378 0.29279692 7.04556236 -1 11 C-1.66 11 -2.32 11 -3 11 C-3 12.32 -3 13.64 -3 15 C-3.66 15 -4.32 15 -5 15 C-5.103125 15.639375 -5.20625 16.27875 -5.3125 16.9375 C-5.539375 17.618125 -5.76625 18.29875 -6 19 C-6.99 19.33 -7.98 19.66 -9 20 C-9 20.66 -9 21.32 -9 22 C-10.32 22.33 -11.64 22.66 -13 23 C-12.05016642 21.49460339 -11.08988109 19.99579653 -10.125 18.5 C-9.59132812 17.6646875 -9.05765625 16.829375 -8.5078125 15.96875 C-8.01023438 15.3190625 -7.51265625 14.669375 -7 14 C-6.34 14 -5.68 14 -5 14 C-4.80664062 13.32453125 -4.61328125 12.6490625 -4.4140625 11.953125 C-4.15367187 11.06109375 -3.89328125 10.1690625 -3.625 9.25 C-3.36976563 8.36828125 -3.11453125 7.4865625 -2.8515625 6.578125 C-2.0790066 4.23919428 -1.16374324 2.16557438 0 0 Z " fill="#AAD9A8" transform="translate(233,207)"/>
<path d="M0 0 C1.9375 0.8125 1.9375 0.8125 4 2 C4.33 2.99 4.66 3.98 5 5 C5.6492959 6.34187818 6.31731862 7.67479497 7 9 C7.66666667 10.33333333 8.33333333 11.66666667 9 13 C6.525 12.01 6.525 12.01 4 11 C3.67 11.99 3.34 12.98 3 14 C0.5261828 10.34305283 -0.61647259 7.41056522 -1 3 C-0.67 2.01 -0.34 1.02 0 0 Z " fill="#494949" transform="translate(261,72)"/>
<path d="M0 0 C1.32 0.66 2.64 1.32 4 2 C2.68 2.33 1.36 2.66 0 3 C0 3.66 0 4.32 0 5 C0.99 5.66 1.98 6.32 3 7 C3.73046875 9.3828125 3.73046875 9.3828125 4.1875 12.125 C4.34605469 13.03507813 4.50460938 13.94515625 4.66796875 14.8828125 C4.83232422 15.93082031 4.83232422 15.93082031 5 17 C5.99 17.33 6.98 17.66 8 18 C5.69 18 3.38 18 1 18 C1 15.33333333 1 12.66666667 1 10 C0.2265625 9.071875 0.2265625 9.071875 -0.5625 8.125 C-2 6 -2 6 -1.75 3.3125 C-1 1 -1 1 0 0 Z " fill="#ADD2AF" transform="translate(170,206)"/>
<path d="M0 0 C2.17871257 0.72967941 4.33139393 1.49541188 6.47265625 2.328125 C6.47265625 2.658125 6.47265625 2.988125 6.47265625 3.328125 C5.44785156 3.31652344 4.42304688 3.30492187 3.3671875 3.29296875 C2.00651225 3.28358478 0.64583501 3.27448523 -0.71484375 3.265625 C-1.38837891 3.25724609 -2.06191406 3.24886719 -2.75585938 3.24023438 C-6.48168506 3.22205962 -9.90614795 3.43513108 -13.52734375 4.328125 C-13.15234375 2.390625 -13.15234375 2.390625 -12.52734375 0.328125 C-8.60285572 -1.63411902 -4.12747487 -1.09725762 0 0 Z " fill="#B1DBB2" transform="translate(170.52734375,191.671875)"/>
<path d="M0 0 C2.31 0 4.62 0 7 0 C8.19287411 3.87684087 9 6.91621923 9 11 C9.66 11 10.32 11 11 11 C11 11.66 11 12.32 11 13 C9.35 13 7.7 13 6 13 C4.73762269 10.47524538 4.90143596 8.68799534 4.9375 5.875 C4.94652344 4.96492187 4.95554688 4.05484375 4.96484375 3.1171875 C4.97644531 2.41851562 4.98804688 1.71984375 5 1 C3.35 1 1.7 1 0 1 C0 0.67 0 0.34 0 0 Z " fill="#B1E2B1" transform="translate(191,243)"/>
<path d="M0 0 C2.475 0.99 2.475 0.99 5 2 C5 5.3 5 8.6 5 12 C4.01 12 3.02 12 2 12 C-0.5847236 8.12291459 -0.62782738 5.61494043 -1 1 C-0.67 0.67 -0.34 0.34 0 0 Z " fill="#97E196" transform="translate(190,207)"/>
<path d="M0 0 C2.09749995 2.35968744 2.96905704 3.54616994 3.1875 6.75 C3.125625 7.4925 3.06375 8.235 3 9 C3.66 9 4.32 9 5 9 C4.67 10.32 4.34 11.64 4 13 C2.68 13.33 1.36 13.66 0 14 C0 13.34 0 12.68 0 12 C-0.66 12 -1.32 12 -2 12 C-1.49832537 9.99330146 -0.99757336 7.99137195 -0.4375 6 C0.14246459 3.68994872 0.14246459 3.68994872 0 0 Z " fill="#A3E2A1" transform="translate(160,213)"/>
<path d="M0 0 C0.99 0.66 1.98 1.32 3 2 C3 2.99 3 3.98 3 5 C2.34 5 1.68 5 1 5 C0.67 11.27 0.34 17.54 0 24 C-1.60875 24.061875 -3.2175 24.12375 -4.875 24.1875 C-5.77992188 24.22230469 -6.68484375 24.25710937 -7.6171875 24.29296875 C-8.79667969 24.14794922 -8.79667969 24.14794922 -10 24 C-10.66 23.01 -11.32 22.02 -12 21 C-11.34 21 -10.68 21 -10 21 C-9.67 20.34 -9.34 19.68 -9 19 C-9 20.32 -9 21.64 -9 23 C-6.36 23 -3.72 23 -1 23 C-1.00523682 22.40985107 -1.01047363 21.81970215 -1.01586914 21.21166992 C-1.03666047 18.53695745 -1.04966701 15.86226199 -1.0625 13.1875 C-1.07087891 12.25873047 -1.07925781 11.32996094 -1.08789062 10.37304688 C-1.09111328 9.48037109 -1.09433594 8.58769531 -1.09765625 7.66796875 C-1.10289307 6.84578857 -1.10812988 6.0236084 -1.11352539 5.17651367 C-1 3 -1 3 0 0 Z " fill="#4E4E4E" transform="translate(407,204)"/>
<path d="M0 0 C-0.875 5.75 -0.875 5.75 -2 8 C-3.32 8 -4.64 8 -6 8 C-6.33 6.02 -6.66 4.04 -7 2 C-4.35261084 0.5393715 -3.10551666 0 0 0 Z " fill="#0D0D0D" transform="translate(270,262)"/>
<path d="M0 0 C0.99 0.66 1.98 1.32 3 2 C3.29296875 4.6015625 3.29296875 4.6015625 3.1875 7.625 C3.16042969 8.62789062 3.13335937 9.63078125 3.10546875 10.6640625 C3.07066406 11.43492187 3.03585938 12.20578125 3 13 C2.01 13.495 2.01 13.495 1 14 C0.67 11.03 0.34 8.06 0 5 C-0.66 5 -1.32 5 -2 5 C-2 4.34 -2 3.68 -2 3 C-1.34 3 -0.68 3 0 3 C0 2.01 0 1.02 0 0 Z " fill="#97DF93" transform="translate(240,183)"/>
<path d="M0 0 C7 2 7 2 14 4 C14 4.66 14 5.32 14 6 C6.17847534 6.92017937 6.17847534 6.92017937 3.2890625 4.6640625 C1.9375 3 1.9375 3 0 0 Z " fill="#A6DBA4" transform="translate(164,234)"/>
<path d="M0 0 C0.99 0.33 1.98 0.66 3 1 C4.1875 4.0625 4.1875 4.0625 5 7 C4.01 7.33 3.02 7.66 2 8 C2 8.66 2 9.32 2 10 C0.68 9.67 -0.64 9.34 -2 9 C-2 7.68 -2 6.36 -2 5 C-1.34 5 -0.68 5 0 5 C0 3.35 0 1.7 0 0 Z " fill="#95E195" transform="translate(232,213)"/>
<path d="M0 0 C0.33 0.99 0.66 1.98 1 3 C-3.75 6 -3.75 6 -6 6 C-6.33 6.99 -6.66 7.98 -7 9 C-10.0625 10.1875 -10.0625 10.1875 -13 11 C-13 9 -13 9 -11.609375 7.4921875 C-10.99578125 6.95851562 -10.3821875 6.42484375 -9.75 5.875 C-9.14671875 5.33617187 -8.5434375 4.79734375 -7.921875 4.2421875 C-6 3 -6 3 -2 3 C-2 2.34 -2 1.68 -2 1 C-1.34 0.67 -0.68 0.34 0 0 Z " fill="#B6E3B5" transform="translate(211,180)"/>
<path d="M0 0 C0.66 0.33 1.32 0.66 2 1 C2 1.66 2 2.32 2 3 C2.66 3.33 3.32 3.66 4 4 C4 5.32 4 6.64 4 8 C3.34 7.67 2.68 7.34 2 7 C-1.11785113 7.64644661 -1.11785113 7.64644661 -2 10 C-3.06351675 6.61608307 -3.21442982 5.4195366 -1.5625 2.1875 C-1.046875 1.465625 -0.53125 0.74375 0 0 Z " fill="#4F4F4E" transform="translate(208,129)"/>
<path d="M0 0 C0.99 0.33 1.98 0.66 3 1 C4.1875 4.0625 4.1875 4.0625 5 7 C2.13275314 6.42655063 1.1385485 6.1385485 -1 4 C-3.97 6.475 -3.97 6.475 -7 9 C-5.44499019 5.18315774 -2.96404505 2.80804268 0 0 Z " fill="#464645" transform="translate(178,145)"/>
<path d="M0 0 C1.22589844 0.15275391 1.22589844 0.15275391 2.4765625 0.30859375 C3.41628906 0.43427734 3.41628906 0.43427734 4.375 0.5625 C3.735625 0.665625 3.09625 0.76875 2.4375 0.875 C1.756875 1.101875 1.07625 1.32875 0.375 1.5625 C0.045 2.5525 -0.285 3.5425 -0.625 4.5625 C-3.595 4.0675 -3.595 4.0675 -6.625 3.5625 C-6.625 2.5725 -6.625 1.5825 -6.625 0.5625 C-4.10446405 -0.69776798 -2.7707902 -0.35624445 0 0 Z " fill="#A7E6A6" transform="translate(233.625,175.4375)"/>
<path d="M0 0 C0.33 0 0.66 0 1 0 C1.40652968 5.42039575 0.03993514 9.07015675 -2 14 C-2.66 14 -3.32 14 -4 14 C-4.33 14.66 -4.66 15.32 -5 16 C-4.34 12.37 -3.68 8.74 -3 5 C-2.34 5 -1.68 5 -1 5 C-0.67 3.35 -0.34 1.7 0 0 Z " fill="#BAE3B7" transform="translate(203,215)"/>
<path d="M0 0 C1.50433594 0.01353516 1.50433594 0.01353516 3.0390625 0.02734375 C3.80992187 0.03894531 4.58078125 0.05054687 5.375 0.0625 C5.375 0.3925 5.375 0.7225 5.375 1.0625 C2.735 1.3925 0.095 1.7225 -2.625 2.0625 C-1.635 2.7225 -0.645 3.3825 0.375 4.0625 C-0.264375 4.35125 -0.90375 4.64 -1.5625 4.9375 C-3.77706079 5.89073451 -3.77706079 5.89073451 -4.625 8.0625 C-5.285 7.7325 -5.945 7.4025 -6.625 7.0625 C-6.41875 6.44375 -6.2125 5.825 -6 5.1875 C-5.87625 4.48625 -5.7525 3.785 -5.625 3.0625 C-6.285 2.4025 -6.945 1.7425 -7.625 1.0625 C-4.98041621 -0.25979189 -2.94738699 -0.03427194 0 0 Z " fill="#464646" transform="translate(263.625,113.9375)"/>
<path d="M0 0 C1.65 0.33 3.3 0.66 5 1 C4.67 2.98 4.34 4.96 4 7 C2.35 6.01 0.7 5.02 -1 4 C-0.67 2.68 -0.34 1.36 0 0 Z " fill="#202020" transform="translate(319,51)"/>
<path d="M0 0 C0.66 0.33 1.32 0.66 2 1 C0.35 2.65 -1.3 4.3 -3 6 C-2.01 6.33 -1.02 6.66 0 7 C-0.99 7.99 -1.98 8.98 -3 10 C-3.33 9.01 -3.66 8.02 -4 7 C-4.66 7 -5.32 7 -6 7 C-5.8125 5.1875 -5.8125 5.1875 -5 3 C-2.5625 1.1875 -2.5625 1.1875 0 0 Z " fill="#4B4B4B" transform="translate(318,31)"/>
<path d="M0 0 C0.99 0.66 1.98 1.32 3 2 C2.67 4.31 2.34 6.62 2 9 C0.35 9 -1.3 9 -3 9 C-3.33 8.34 -3.66 7.68 -4 7 C-2.68 7 -1.36 7 0 7 C0 4.69 0 2.38 0 0 Z " fill="#AFD9AC" transform="translate(218,208)"/>
<path d="M0 0 C0.66 0.99 1.32 1.98 2 3 C1.67 3.99 1.34 4.98 1 6 C1.99 6 2.98 6 4 6 C3.67 6.99 3.34 7.98 3 9 C1.02 9 -0.96 9 -3 9 C-2.44271087 5.65626525 -1.64826111 2.96687001 0 0 Z " fill="#B0DCAE" transform="translate(196,192)"/>
<path d="M0 0 C1.32 0 2.64 0 4 0 C4.33 2.31 4.66 4.62 5 7 C3.68 7 2.36 7 1 7 C0.67 4.69 0.34 2.38 0 0 Z " fill="#0B0B0A" transform="translate(134,198)"/>
<path d="M0 0 C0.99 0 1.98 0 3 0 C2.43628586 3.26954202 1.50037734 4.82575883 -1 7 C-1.99 6.67 -2.98 6.34 -4 6 C-2.84826645 3.53199953 -1.95216435 1.95216435 0 0 Z " fill="#232323" transform="translate(266,68)"/>
<path d="M0 0 C1.65 0 3.3 0 5 0 C5.66 1.65 6.32 3.3 7 5 C6.34 5.66 5.68 6.32 5 7 C5 6.34 5 5.68 5 5 C2.525 4.01 2.525 4.01 0 3 C0 2.01 0 1.02 0 0 Z " fill="#96E297" transform="translate(170,209)"/>
<path d="M0 0 C3.63 0 7.26 0 11 0 C8 3 8 3 5.73828125 3.07421875 C4.93777344 2.94660156 4.13726562 2.81898437 3.3125 2.6875 C2.10013672 2.50767578 2.10013672 2.50767578 0.86328125 2.32421875 C0.24839844 2.21722656 -0.36648438 2.11023438 -1 2 C-0.67 1.34 -0.34 0.68 0 0 Z " fill="#030302" transform="translate(261,115)"/>
<path d="M0 0 C0.66 0 1.32 0 2 0 C2 0.99 2 1.98 2 3 C3.98 3 5.96 3 8 3 C6.04783565 4.95216435 4.46800047 5.84826645 2 7 C0 5 0 5 -0.125 2.375 C-0.08375 1.59125 -0.0425 0.8075 0 0 Z " fill="#95E195" transform="translate(180,218)"/>
<path d="M0 0 C1.65 0 3.3 0 5 0 C4.01 0.495 4.01 0.495 3 1 C3 1.66 3 2.32 3 3 C1.03125 4.5078125 1.03125 4.5078125 -1.5 6.125 C-2.3353125 6.66382813 -3.170625 7.20265625 -4.03125 7.7578125 C-4.6809375 8.16773438 -5.330625 8.57765625 -6 9 C-5.34 7.02 -4.68 5.04 -4 3 C-3.01 3 -2.02 3 -1 3 C-0.67 2.01 -0.34 1.02 0 0 Z " fill="#AED8AC" transform="translate(208,187)"/>
<path d="M0 0 C0.33 0.66 0.66 1.32 1 2 C2.65 1.67 4.3 1.34 6 1 C6.33 1.66 6.66 2.32 7 3 C6.34 3 5.68 3 5 3 C5 3.66 5 4.32 5 5 C3.02 5 1.04 5 -1 5 C-0.67 3.35 -0.34 1.7 0 0 Z " fill="#070707" transform="translate(197,170)"/>
<path d="M0 0 C-1 3 -1 3 -3 4 C-4.99960012 4.039992 -7.00047242 4.04346799 -9 4 C-9 3.34 -9 2.68 -9 2 C-5.62902617 0.50178941 -3.79557881 0 0 0 Z " fill="#060606" transform="translate(331,37)"/>
<path d="M0 0 C2.31 0 4.62 0 7 0 C7.5625 1.9375 7.5625 1.9375 8 4 C7 5 7 5 3.9375 5.0625 C2.968125 5.041875 1.99875 5.02125 1 5 C1.99 3.68 2.98 2.36 4 1 C2.68 0.67 1.36 0.34 0 0 Z " fill="#363636" transform="translate(327,36)"/>
<path d="M0 0 C0.5534764 2.07553648 1 3.84365964 1 6 C0.34 6 -0.32 6 -1 6 C-1.33 6.99 -1.66 7.98 -2 9 C-4 6 -4 6 -3.625 3.8125 C-3.41875 3.214375 -3.2125 2.61625 -3 2 C-2.34 2 -1.68 2 -1 2 C-0.67 1.34 -0.34 0.68 0 0 Z " fill="#4A4A49" transform="translate(356,83)"/>
<path d="M0 0 C0.33 0.66 0.66 1.32 1 2 C1.66 2 2.32 2 3 2 C3 3.65 3 5.3 3 7 C1.35 6.67 -0.3 6.34 -2 6 C-1.34 4.02 -0.68 2.04 0 0 Z " fill="#2A2A2A" transform="translate(311,36)"/>
<path d="M0 0 C2.0625 2.25 2.0625 2.25 4 5 C3.75 7.3125 3.75 7.3125 3 9 C0.52121318 6.8445332 -0.57563804 5.28880515 -1 2 C-0.67 1.34 -0.34 0.68 0 0 Z " fill="#B6D9B4" transform="translate(178,208)"/>
<path d="M0 0 C0.99 0.33 1.98 0.66 3 1 C2.67 2.32 2.34 3.64 2 5 C1.67 4.67 1.34 4.34 1 4 C-0.4540625 4.0309375 -0.4540625 4.0309375 -1.9375 4.0625 C-5 4 -5 4 -7 2 C-3.98968256 1.06576355 -3.13349732 0.95550089 0 2 C0 1.34 0 0.68 0 0 Z " fill="#C4DDC5" transform="translate(178,230)"/>
<path d="M0 0 C1.60080151 4.00200378 0.29279692 7.04556236 -1 11 C-1.99 11 -2.98 11 -4 11 C-2.95902388 7.13351728 -1.96301592 3.50538557 0 0 Z " fill="#C1E7C1" transform="translate(233,207)"/>
<path d="M0 0 C0.66 0.33 1.32 0.66 2 1 C2 2.98 2 4.96 2 7 C1.01 7 0.02 7 -1 7 C-1.33 6.34 -1.66 5.68 -2 5 C-1.0625 2.375 -1.0625 2.375 0 0 Z " fill="#121212" transform="translate(189,132)"/>
<path d="M0 0 C0.66 0 1.32 0 2 0 C2.66 2.31 3.32 4.62 4 7 C2.35 7 0.7 7 -1 7 C-0.67 4.69 -0.34 2.38 0 0 Z " fill="#A9CFA9" transform="translate(204,226)"/>
<path d="M0 0 C0.66 0.33 1.32 0.66 2 1 C2 1.99 2 2.98 2 4 C2.99 4.33 3.98 4.66 5 5 C2.69 5 0.38 5 -2 5 C-2 3.68 -2 2.36 -2 1 C-1.34 0.67 -0.68 0.34 0 0 Z " fill="#A6DDA7" transform="translate(173,219)"/>
<path d="M0 0 C0.66 0 1.32 0 2 0 C1.50769231 5.53846154 1.50769231 5.53846154 -1.0625 7.875 C-2.0215625 8.431875 -2.0215625 8.431875 -3 9 C-2.01 6.03 -1.02 3.06 0 0 Z " fill="#95E194" transform="translate(204,218)"/>
<path d="M0 0 C0.99 0.33 1.98 0.66 3 1 C3.33 3.31 3.66 5.62 4 8 C3.01 8.495 3.01 8.495 2 9 C0 3.375 0 3.375 0 0 Z " fill="#A5DFA2" transform="translate(156,205)"/>
<path d="M0 0 C2 2 2 2 2 5 C0.35 5.33 -1.3 5.66 -3 6 C-3.33 5.34 -3.66 4.68 -4 4 C-3.67 3.34 -3.34 2.68 -3 2 C-2.01 2 -1.02 2 0 2 C0 1.34 0 0.68 0 0 Z " fill="#010100" transform="translate(315,124)"/>
<path d="M0 0 C0.66 0.33 1.32 0.66 2 1 C-0.31 3.31 -2.62 5.62 -5 8 C-5.66 7.67 -6.32 7.34 -7 7 C-4.66666667 4.66666667 -2.33333333 2.33333333 0 0 Z " fill="#5F5F5F" transform="translate(217,251)"/>
<path d="M0 0 C0.66 0.33 1.32 0.66 2 1 C0.35 2.98 -1.3 4.96 -3 7 C-4.32 6.67 -5.64 6.34 -7 6 C-4.69 4.02 -2.38 2.04 0 0 Z " fill="#575756" transform="translate(279,208)"/>
<path d="M0 0 C1.98 0.99 1.98 0.99 4 2 C4 3.65 4 5.3 4 7 C3.01 6.67 2.02 6.34 1 6 C0.67 4.02 0.34 2.04 0 0 Z " fill="#95E195" transform="translate(188,226)"/>
<path d="M0 0 C1.67542976 0.28604898 3.34385343 0.61781233 5 1 C4.67 1.99 4.34 2.98 4 4 C4 3.34 4 2.68 4 2 C3.21625 2.474375 2.4325 2.94875 1.625 3.4375 C0.11051322 4.33898023 -1.4235897 5.21179485 -3 6 C-1.125 1.125 -1.125 1.125 0 0 Z " fill="#525252" transform="translate(265,66)"/>
<path d="M0 0 C0.66 0.66 1.32 1.32 2 2 C0.9275 1.938125 -0.145 1.87625 -1.25 1.8125 C-5.10866187 2.00543309 -6.28817788 2.39665076 -9 5 C-8.625 3.0625 -8.625 3.0625 -8 1 C-5.23749964 -0.38125018 -3.05268901 -0.19079306 0 0 Z " fill="#404040" transform="translate(303,37)"/>
<path d="M0 0 C0.66 1.32 1.32 2.64 2 4 C0.35 5.32 -1.3 6.64 -3 8 C-3.66 7.67 -4.32 7.34 -5 7 C-3.35 4.69 -1.7 2.38 0 0 Z " fill="#5B5B5B" transform="translate(348,62)"/>
<path d="M0 0 C3.65316671 1.24976756 4.78065836 1.67098753 7 5 C4.69 4.34 2.38 3.68 0 3 C0 2.01 0 1.02 0 0 Z " fill="#464645" transform="translate(341,31)"/>
</svg>
