<?xml version="1.0" encoding="UTF-8"?>
<svg version="1.1" xmlns="http://www.w3.org/2000/svg" width="192" height="88">
<path d="M0 0 C1.38232443 1.62626404 2.71937515 3.2925002 4 5 C4.99 5.66 5.98 6.32 7 7 C7.73046875 9.3828125 7.73046875 9.3828125 8.1875 12.125 C8.34605469 13.03507812 8.50460938 13.94515625 8.66796875 14.8828125 C8.77753906 15.58148438 8.88710938 16.28015625 9 17 C6.50935112 17.68707555 4.62113708 18 2 18 C1.67 17.34 1.34 16.68 1 16 C-0.98 16.99 -0.98 16.99 -3 18 C-1.87851562 18.14501953 -1.87851562 18.14501953 -0.734375 18.29296875 C2.36839591 19.09525666 3.50740325 20.07469512 5.75 22.3125 C8.61013728 24.97258987 11.05292567 26.63527947 14.6875 28.0625 C19.19605766 29.84876246 21.22591163 32.06258426 24 36 C24.680625 35.2575 25.36125 34.515 26.0625 33.75 C29.05735068 30.74666532 32.26633951 29.00017526 36 27 C40.93320644 24.34365807 44.86944778 20.74107087 49 17 C48.505 15.515 48.505 15.515 48 14 C47.67 15.32 47.34 16.64 47 18 C44.69 17.67 42.38 17.34 40 17 C40.66 13.7 41.32 10.4 42 7 C43.32 6.67 44.64 6.34 46 6 C47.12516085 4.16715557 47.12516085 4.16715557 48 2 C48.97581759 0.64886795 49.97029741 -0.68946944 51 -2 C52.33333333 -1.66666667 53.66666667 -1.33333333 55 -1 C55.70640625 -0.82339844 56.4128125 -0.64679687 57.140625 -0.46484375 C57.75421875 -0.31144531 58.3678125 -0.15804687 59 0 C62.93697491 25.02791191 62.93697491 25.02791191 57.73046875 32.92578125 C55.91341091 35.06115579 53.98817815 37.02207019 52 39 C50.9906345 40.05450525 49.98294207 41.11061346 48.9765625 42.16796875 C47.90246365 43.28002105 46.82693879 44.39069775 45.75 45.5 C45.23066895 46.04116455 44.71133789 46.5823291 44.17626953 47.13989258 C42.84115615 48.48562273 41.42507781 49.74993175 40 51 C39.01 51 38.02 51 37 51 C38.40415268 47.77860427 40.05340553 45.76883762 42.625 43.390625 C43.33140625 42.71773437 44.0378125 42.04484375 44.765625 41.3515625 C46.24743367 39.95783336 47.73698261 38.57228522 49.234375 37.1953125 C54.94679963 31.71221879 56.6708794 28.00263314 57.1953125 20.03125 C57.17210938 19.1959375 57.14890625 18.360625 57.125 17.5 C57.10695313 16.6440625 57.08890625 15.788125 57.0703125 14.90625 C57.04710938 14.2771875 57.02390625 13.648125 57 13 C56.67 13.33 56.34 13.66 56 14 C56.12375 15.155 56.2475 16.31 56.375 17.5 C56.48088922 23.40861874 52.65882853 26.74573042 49 31 C47.59972688 32.96522481 46.30257962 34.9679758 45 37 C44.01 36.505 44.01 36.505 43 36 C44.48362284 29.73581469 48.24162156 25.08486495 52 20 C46.71299886 23.76397248 46.71299886 23.76397248 42 28.1875 C39.88836787 30.10116662 38.7957671 30.42154415 36.125 31.1875 C31.56052522 32.76882553 29.52060885 35.445133 27.0546875 39.50390625 C25.36178285 43.51044725 25.59081542 46.7035619 26 51 C25.01 51 24.02 51 23 51 C22.89042969 50.19175781 22.78085937 49.38351563 22.66796875 48.55078125 C22.50941406 47.48214844 22.35085937 46.41351563 22.1875 45.3125 C22.03667969 44.25675781 21.88585938 43.20101562 21.73046875 42.11328125 C20.71184514 37.77187474 19.28156994 34.91058917 15.625 32.3125 C13.1028768 30.96969985 13.1028768 30.96969985 10.6875 30.25 C6.49670921 28.30079498 3.36636288 25.12411841 0 22 C-0.33 22.33 -0.66 22.66 -1 23 C-0.57847656 23.59167969 -0.15695313 24.18335937 0.27734375 24.79296875 C0.82519531 25.58316406 1.37304688 26.37335937 1.9375 27.1875 C2.48277344 27.96480469 3.02804688 28.74210937 3.58984375 29.54296875 C5.0456289 32.07950299 5.59613435 34.1218182 6 37 C2.09406566 35.69802189 1.58589782 34.11064504 -0.5 30.625 C-2.81691419 26.70902258 -2.81691419 26.70902258 -5.7421875 23.265625 C-6.36480469 22.63914062 -6.36480469 22.63914062 -7 22 C-6.625 20.125 -6.625 20.125 -6 18 C-6.38567131 15.31850007 -6.38567131 15.31850007 -7 13 C-8.38523817 19.23357177 -8.14812631 24.94216159 -6 31 C-3.35103765 34.63857338 -0.21290248 37.5594101 3.125 40.5625 C4.79789217 42.12242752 6.46736491 43.68603304 8.1328125 45.25390625 C9.24487061 46.26432983 9.24487061 46.26432983 10.37939453 47.29516602 C12 49 12 49 12 51 C6.26124403 50.1071071 2.83978595 45.47404633 -1.125 41.5625 C-1.94871094 40.79228516 -2.77242187 40.02207031 -3.62109375 39.22851562 C-9.81769234 33.1282635 -11.84534372 28.42611167 -12.05273438 19.80883789 C-12.01273856 17.78595448 -11.85159696 15.76661329 -11.6875 13.75 C-11.63916016 13.08226562 -11.59082031 12.41453125 -11.54101562 11.7265625 C-11.2353308 7.77974575 -10.88432226 3.86096255 -10 0 C-6.21804614 -2.52130257 -3.84069194 -2.26502345 0 0 Z M-4 1 C-3 4 -3 4 -3 4 Z M52 1 C52 5.95 52 10.9 52 16 C52.33 16 52.66 16 53 16 C53 11.05 53 6.1 53 1 C52.67 1 52.34 1 52 1 Z M-7 4 C-6 7 -6 7 -6 7 Z M-4 7 C-4 8.98 -4 10.96 -4 13 C-3.67 13 -3.34 13 -3 13 C-3 11.02 -3 9.04 -3 7 C-3.33 7 -3.66 7 -4 7 Z M4 9 C5 13 5 13 5 13 Z M44 9 C44 10.98 44 12.96 44 15 C44.33 15 44.66 15 45 15 C45 13.02 45 11.04 45 9 C44.67 9 44.34 9 44 9 Z " fill="#0B0D0C" transform="translate(32,34)"/>
<path d="M0 0 C3.96 0 7.92 0 12 0 C12.33 1.65 12.66 3.3 13 5 C13.66 3.35 14.32 1.7 15 0 C17.91765891 -0.10806144 20.83131125 -0.18732877 23.75 -0.25 C24.9875 -0.30027344 24.9875 -0.30027344 26.25 -0.3515625 C32.36664244 -0.45021802 32.36664244 -0.45021802 35.59375 1.84375 C37 4 37 4 36.75 6.75 C36.5025 7.4925 36.255 8.235 36 9 C38.6465335 6.3534665 39.59941997 3.43778736 41 0 C42.32 0 43.64 0 45 0 C45.66 1.65 46.32 3.3 47 5 C47.66 3.35 48.32 1.7 49 0 C50.79133978 -0.05391993 52.58313899 -0.09275571 54.375 -0.125 C55.37273437 -0.14820313 56.37046875 -0.17140625 57.3984375 -0.1953125 C60 0 60 0 62 2 C62.33 1.34 62.66 0.68 63 0 C64.65 0 66.3 0 68 0 C66.125 4.875 66.125 4.875 65 6 C64.63239269 8.32817964 64.29758419 10.6618385 64 13 C62.35 13 60.7 13 59 13 C58.505 10.03 58.505 10.03 58 7 C57.34 7.66 56.68 8.32 56 9 C55.01 9 54.02 9 53 9 C53 10.32 53 11.64 53 13 C50.36 13 47.72 13 45 13 C45 12.34 45 11.68 45 11 C43.68 11 42.36 11 41 11 C41 11.66 41 12.32 41 13 C30 13 19 13 8 13 C8 10.03 8 7.06 8 4 C7.34 4 6.68 4 6 4 C6 6.97 6 9.94 6 13 C4.68 13 3.36 13 2 13 C2 10.03 2 7.06 2 4 C1.01 4 0.02 4 -1 4 C-0.67 2.68 -0.34 1.36 0 0 Z M23 4 C27 5 27 5 27 5 Z " fill="#090E0D" transform="translate(95,61)"/>
<path d="M0 0 C2.875 1.3125 2.875 1.3125 4.875 4.3125 C5 7.25 5 7.25 4.875 10.3125 C4.875 11.6325 4.875 12.9525 4.875 14.3125 C4.875 18.87389298 3.93893438 19.78677647 0.85351562 22.9296875 C0.30373047 23.46851562 -0.24605469 24.00734375 -0.8125 24.5625 C-1.34294922 25.11679687 -1.87339844 25.67109375 -2.41992188 26.2421875 C-4.82180559 28.63522993 -6.52345385 30.19371797 -9.89453125 30.859375 C-12.125 30.3125 -12.125 30.3125 -14.125 27.3125 C-16.19629603 26.94804647 -16.19629603 26.94804647 -18.5 27.125 C-19.27085938 27.15207031 -20.04171875 27.17914062 -20.8359375 27.20703125 C-21.96902344 27.25923828 -21.96902344 27.25923828 -23.125 27.3125 C-24.445 27.3125 -25.765 27.3125 -27.125 27.3125 C-27.455 24.6725 -27.785 22.0325 -28.125 19.3125 C-24.83523192 18.21591064 -23.41196233 18.51296862 -20.125 19.3125 C-20.785 18.3225 -21.445 17.3325 -22.125 16.3125 C-22.54296875 13.921875 -22.54296875 13.921875 -22.125 11.3125 C-20.11328125 8.890625 -20.11328125 8.890625 -17.4375 6.5625 C-16.56738281 5.78390625 -15.69726562 5.0053125 -14.80078125 4.203125 C-12.07312522 2.27584687 -10.38029002 1.75135309 -7.125 1.3125 C-6.485625 0.920625 -5.84625 0.52875 -5.1875 0.125 C-3.125 -0.6875 -3.125 -0.6875 0 0 Z M-4.125 4.3125 C-4.125 5.3025 -4.125 6.2925 -4.125 7.3125 C-2.18490478 9.01782323 -2.18490478 9.01782323 -0.125 10.3125 C0.205 8.6625 0.535 7.0125 0.875 5.3125 C-0.775 4.9825 -2.425 4.6525 -4.125 4.3125 Z " fill="#040504" transform="translate(97.125,0.6875)"/>
<path d="M0 0 C0.66 1.65 1.32 3.3 2 5 C2.309375 4.360625 2.61875 3.72125 2.9375 3.0625 C4 1 4 1 5 0 C6.99952758 -0.04346799 9.00039988 -0.039992 11 0 C11.99 0 12.98 0 14 0 C20.33333333 0 26.66666667 0 33 0 C32.7215625 1.85625 32.7215625 1.85625 32.4375 3.75 C32.04266262 6.80593312 32.05100076 9.03437737 33 12 C32 13 32 13 29.34765625 13.09765625 C27.72150391 13.08025391 27.72150391 13.08025391 26.0625 13.0625 C24.98097656 13.05347656 23.89945313 13.04445313 22.78515625 13.03515625 C21.86605469 13.02355469 20.94695312 13.01195312 20 13 C19.34 13 18.68 13 18 13 C16.68 13 15.36 13 14 13 C13.67 12.34 13.34 11.68 13 11 C12.34 11.66 11.68 12.32 11 13 C6.94738713 13.34490322 5.45245824 13.30163882 2 11 C1.01 11.66 0.02 12.32 -1 13 C-4.5625 12.8125 -4.5625 12.8125 -8 12 C-10 9 -10 9 -9.8125 5.4375 C-8.43137602 -0.40571686 -5.34987951 -0.23777242 0 0 Z M-5 4 C-5 5.65 -5 7.3 -5 9 C-4.87625 8.360625 -4.7525 7.72125 -4.625 7.0625 C-4.41875 6.381875 -4.2125 5.70125 -4 5 C-3.34 4.67 -2.68 4.34 -2 4 C-2.99 4 -3.98 4 -5 4 Z M7 4 C6.67 5.32 6.34 6.64 6 8 C7.32 8.33 8.64 8.66 10 9 C10 7.35 10 5.7 10 4 C9.01 4 8.02 4 7 4 Z M23 5 C22.67 5.99 22.34 6.98 22 8 C22.66 8.66 23.32 9.32 24 10 C24 8.35 24 6.7 24 5 C23.67 5 23.34 5 23 5 Z " fill="#090B0A" transform="translate(145,46)"/>
<path d="M0 0 C2 2 2 2 2.375 4.625 C1.7998161 9.80165506 -0.30430054 14.30430054 -4 18 C-6.625 18.125 -6.625 18.125 -9 18 C-9.66 19.98 -10.32 21.96 -11 24 C-11.99 23.67 -12.98 23.34 -14 23 C-13.67 22.01 -13.34 21.02 -13 20 C-13.66 20 -14.32 20 -15 20 C-15.33 19.34 -15.66 18.68 -16 18 C-16.7425 18.2475 -17.485 18.495 -18.25 18.75 C-21 19 -21 19 -23.3125 17.3125 C-25 15 -25 15 -25 11 C-25.66 10.67 -26.32 10.34 -27 10 C-25.125 5.125 -25.125 5.125 -24 4 C-19.96839809 3.73706944 -18.44107266 3.70595156 -15 6 C-14.52949219 5.57847656 -14.05898438 5.15695313 -13.57421875 4.72265625 C-12.95160156 4.17480469 -12.32898437 3.62695312 -11.6875 3.0625 C-11.07261719 2.51722656 -10.45773438 1.97195312 -9.82421875 1.41015625 C-6.39804 -1.23834595 -4.00717098 -1.13022771 0 0 Z M-11 6 C-11 6.66 -11 7.32 -11 8 C-11.66 8 -12.32 8 -13 8 C-12.34 9.32 -11.68 10.64 -11 12 C-10.401875 11.030625 -9.80375 10.06125 -9.1875 9.0625 C-7 6 -7 6 -4 5 C-4.33 7.64 -4.66 10.28 -5 13 C-2.16625119 9.79663178 -1.4794463 7.21912747 -1 3 C-5.24223102 2.6363802 -7.58168085 3.4606772 -11 6 Z M-23 8 C-22.34 9.32 -21.68 10.64 -21 12 C-21 10.68 -21 9.36 -21 8 C-21.66 8 -22.32 8 -23 8 Z M-21 12 C-20 14 -20 14 -20 14 Z M-8 12 C-8.33 12.99 -8.66 13.98 -9 15 C-7.68 15 -6.36 15 -5 15 C-5 14.34 -5 13.68 -5 13 C-5.99 12.67 -6.98 12.34 -8 12 Z " fill="#0E600E" transform="translate(69,43)"/>
<path d="M0 0 C1.32 0 2.64 0 4 0 C4.33 1.98 4.66 3.96 5 6 C5.99 4.02 6.98 2.04 8 0 C9.32 0 10.64 0 12 0 C12.66 1.65 13.32 3.3 14 5 C14.33 3.35 14.66 1.7 15 0 C19.875 0.875 19.875 0.875 21 2 C21.33 1.34 21.66 0.68 22 0 C23.32 0 24.64 0 26 0 C26 4.29 26 8.58 26 13 C24.68 13 23.36 13 22 13 C21.34 12.01 20.68 11.02 20 10 C19.67 10.99 19.34 11.98 19 13 C12.47410359 13.12549801 12.47410359 13.12549801 9.875 12.4375 C7.36520079 11.85188018 5.50881161 12.46239751 3 13 C1.0003559 13.03772913 -1.00054061 13.04649906 -3 13 C-3.125 10.625 -3.125 10.625 -3 8 C-2.34 7.34 -1.68 6.68 -1 6 C-0.60235737 4.01178687 -0.26224651 2.01055661 0 0 Z " fill="#0A0C0B" transform="translate(98,46)"/>
<path d="M0 0 C0.98871094 -0.01417969 1.97742188 -0.02835938 2.99609375 -0.04296875 C5.5625 0.1875 5.5625 0.1875 7.5625 2.1875 C7.8925 1.5275 8.2225 0.8675 8.5625 0.1875 C10.2125 0.1875 11.8625 0.1875 13.5625 0.1875 C11.6875 5.0625 11.6875 5.0625 10.5625 6.1875 C10.19489269 8.51567964 9.86008419 10.8493385 9.5625 13.1875 C7.9125 13.1875 6.2625 13.1875 4.5625 13.1875 C4.2325 11.2075 3.9025 9.2275 3.5625 7.1875 C2.9025 7.8475 2.2425 8.5075 1.5625 9.1875 C0.5725 9.1875 -0.4175 9.1875 -1.4375 9.1875 C-1.7675 10.5075 -2.0975 11.8275 -2.4375 13.1875 C-2.7675 11.8675 -3.0975 10.5475 -3.4375 9.1875 C-4.0975 10.1775 -4.7575 11.1675 -5.4375 12.1875 C-6.4375 11.1875 -6.4375 11.1875 -6.5703125 8.9375 C-6.56773437 8.03 -6.56515625 7.1225 -6.5625 6.1875 C-6.56507813 5.28 -6.56765625 4.3725 -6.5703125 3.4375 C-6.31443558 -0.89735611 -3.76964952 0.02451007 0 0 Z " fill="#141917" transform="translate(149.4375,60.8125)"/>
<path d="M0 0 C2.97 0 5.94 0 9 0 C8.814375 1.2375 8.62875 2.475 8.4375 3.75 C8.04266262 6.80593312 8.05100076 9.03437737 9 12 C8 13 8 13 5.27734375 13.09765625 C3.62412109 13.08025391 3.62412109 13.08025391 1.9375 13.0625 C0.83277344 13.05347656 -0.27195313 13.04445313 -1.41015625 13.03515625 C-2.69212891 13.01775391 -2.69212891 13.01775391 -4 13 C-2.68 12.67 -1.36 12.34 0 12 C0 8.04 0 4.08 0 0 Z " fill="#1F201F" transform="translate(169,46)"/>
<path d="M0 0 C1.32 0 2.64 0 4 0 C4 4.29 4 8.58 4 13 C2.68 13 1.36 13 0 13 C-0.66 12.01 -1.32 11.02 -2 10 C-2.33 10.66 -2.66 11.32 -3 12 C-3.99 11.67 -4.98 11.34 -6 11 C-6 7.7 -6 4.4 -6 1 C-3.525 1.495 -3.525 1.495 -1 2 C-0.67 1.34 -0.34 0.68 0 0 Z " fill="#060706" transform="translate(120,46)"/>
<path d="M0 0 C-2 8 -2 8 -2.60546875 10.14453125 C-3.16763017 12.0309918 -3.16763017 12.0309918 -2.375 13.9375 C-2 16 -2 16 -3.3125 18.6875 C-5 21 -5 21 -7 22 C-6.80664062 21.484375 -6.61328125 20.96875 -6.4140625 20.4375 C-5.83648715 17.03743381 -6.6016373 14.34887336 -7.375 11 C-7.65085937 9.783125 -7.92671875 8.56625 -8.2109375 7.3125 C-8.79258142 4.87074732 -9.37979647 2.4321707 -10 0 C-5.91847062 -2.09907226 -4.08152938 -2.09907226 0 0 Z M-4 1 C-3 4 -3 4 -3 4 Z M-7 4 C-6 7 -6 7 -6 7 Z " fill="#101311" transform="translate(32,34)"/>
<path d="M0 0 C2.64 0 5.28 0 8 0 C8 4.29 8 8.58 8 13 C6 14 6 14 0 13 C0 8.71 0 4.42 0 0 Z " fill="#0C0C0C" transform="translate(125,46)"/>
<path d="M0 0 C1.65 0 3.3 0 5 0 C5 0.99 5 1.98 5 3 C5.99 3.33 6.98 3.66 8 4 C7.67 4.99 7.34 5.98 7 7 C6.01 7 5.02 7 4 7 C3.67 7.99 3.34 8.98 3 10 C2.01 10.495 2.01 10.495 1 11 C-0.13350534 13.01669827 -0.13350534 13.01669827 -1 15 C-1.99 15 -2.98 15 -4 15 C-3.67 13.35 -3.34 11.7 -3 10 C-2.34 10 -1.68 10 -1 10 C-0.67 8.68 -0.34 7.36 0 6 C0.99 6 1.98 6 3 6 C3 5.34 3 4.68 3 4 C2.4225 4.33 1.845 4.66 1.25 5 C-1 6 -1 6 -5 6 C-4.67 4.68 -4.34 3.36 -4 2 C-2.68 2 -1.36 2 0 2 C0 1.34 0 0.68 0 0 Z " fill="#0C0E0D" transform="translate(60,23)"/>
<path d="M0 0 C2.31 0 4.62 0 7 0 C6.835 0.598125 6.67 1.19625 6.5 1.8125 C5.8885876 4.11344336 5.8885876 4.11344336 6 7 C5.01 7 4.02 7 3 7 C3 7.66 3 8.32 3 9 C4.32 9 5.64 9 7 9 C7 9.99 7 10.98 7 12 C4.69 12 2.38 12 0 12 C0 8.04 0 4.08 0 0 Z " fill="#030908" transform="translate(115,62)"/>
<path d="M0 0 C1.32 0 2.64 0 4 0 C4 3.3 4 6.6 4 10 C3.34 10 2.68 10 2 10 C2 10.99 2 11.98 2 13 C0.35 13 -1.3 13 -3 13 C-3.125 10.625 -3.125 10.625 -3 8 C-2.34 7.34 -1.68 6.68 -1 6 C-0.60235737 4.01178687 -0.26224651 2.01055661 0 0 Z " fill="#131313" transform="translate(98,46)"/>
<path d="M0 0 C1.98 0 3.96 0 6 0 C5.67 3.96 5.34 7.92 5 12 C3.68 12 2.36 12 1 12 C0.67 8.04 0.34 4.08 0 0 Z " fill="#040908" transform="translate(96,62)"/>
<path d="M0 0 C3.96 0 7.92 0 12 0 C12.33 1.65 12.66 3.3 13 5 C12.34 4.34 11.68 3.68 11 3 C10.34 6.3 9.68 9.6 9 13 C8.67 13 8.34 13 8 13 C7.67 9.04 7.34 5.08 7 1 C5.02 1 3.04 1 1 1 C1 1.99 1 2.98 1 4 C0.34 4 -0.32 4 -1 4 C-0.67 2.68 -0.34 1.36 0 0 Z " fill="#161C17" transform="translate(95,61)"/>
<path d="M0 0 C0.33 0 0.66 0 1 0 C1.21824777 6.0018137 0.5056904 11.19233704 -1 17 C-1.66 16.67 -2.32 16.34 -3 16 C-3.37851209 10.06997733 -2.10575375 5.52760359 0 0 Z " fill="#131514" transform="translate(92,48)"/>
<path d="M0 0 C4.29 0 8.58 0 13 0 C13 4.29 13 8.58 13 13 C12.67 12.01 12.34 11.02 12 10 C10.68 10 9.36 10 8 10 C8 9.34 8 8.68 8 8 C8.99 7.34 9.98 6.68 11 6 C11.33 4.35 11.66 2.7 12 1 C8.04 1 4.08 1 0 1 C0 0.67 0 0.34 0 0 Z " fill="#171F18" transform="translate(110,61)"/>
<path d="M0 0 C1.98 0.495 1.98 0.495 4 1 C3.67 3.64 3.34 6.28 3 9 C1.68 8.67 0.36 8.34 -1 8 C-0.67 5.36 -0.34 2.72 0 0 Z " fill="#0D0F0D" transform="translate(49,35)"/>
<path d="M0 0 C0.33 0 0.66 0 1 0 C0.67 3.3 0.34 6.6 0 10 C-2.31 9.67 -4.62 9.34 -7 9 C-7 8.34 -7 7.68 -7 7 C-6.01 6.67 -5.02 6.34 -4 6 C-3.34 6.33 -2.68 6.66 -2 7 C-1.34 4.69 -0.68 2.38 0 0 Z " fill="#141614" transform="translate(79,42)"/>
<path d="M0 0 C0.33 0.99 0.66 1.98 1 3 C1.99 3.33 2.98 3.66 4 4 C3.67 4.99 3.34 5.98 3 7 C2.01 7 1.02 7 0 7 C-0.33 7.66 -0.66 8.32 -1 9 C-1 8.34 -1 7.68 -1 7 C-2.32 7.33 -3.64 7.66 -5 8 C-4.67 7.34 -4.34 6.68 -4 6 C-3.01 6 -2.02 6 -1 6 C-0.67 4.02 -0.34 2.04 0 0 Z " fill="#131613" transform="translate(64,23)"/>
<path d="M0 0 C1.9375 0.3125 1.9375 0.3125 4 1 C4.33 1.99 4.66 2.98 5 4 C3.68 4.33 2.36 4.66 1 5 C0.67 6.32 0.34 7.64 0 9 C-1.125 6.1875 -1.125 6.1875 -2 3 C-1.34 2.01 -0.68 1.02 0 0 Z " fill="#121715" transform="translate(147,65)"/>
<path d="M0 0 C0.99 0 1.98 0 3 0 C2.67 1.65 2.34 3.3 2 5 C1.01 5 0.02 5 -1 5 C-0.67 3.35 -0.34 1.7 0 0 Z " fill="#0A0C0B" transform="translate(52,29)"/>
<path d="M0 0 C0.99 0 1.98 0 3 0 C3 1.32 3 2.64 3 4 C1.68 3.67 0.36 3.34 -1 3 C-0.67 2.01 -0.34 1.02 0 0 Z " fill="#080A09" transform="translate(56,39)"/>
</svg>
